<svg width="58" height="11" viewBox="0 0 58 11" fill="none" xmlns="http://www.w3.org/2000/svg">
<path d="M0.128475 10.0444C1.7237 8.06216 3.57523 6.22192 5.72756 4.67819C6.79843 3.90004 7.9505 3.21174 9.15955 2.61151C10.3718 2.01666 11.6441 1.51705 12.9552 1.12348C14.2665 0.728113 15.616 0.438791 16.9806 0.248297C18.3464 0.0667877 19.7243 -0.00511074 21.0977 0.00028038C21.7858 -0.00331402 22.4688 0.03444 23.1542 0.0685854L24.1766 0.153035C24.5189 0.178195 24.8541 0.230318 25.1937 0.268058C26.547 0.435189 27.8888 0.665214 29.2069 0.961739C29.8715 1.09832 30.5197 1.27445 31.1763 1.43439C31.8215 1.6177 32.4785 1.77944 33.1115 1.99329C34.3933 2.39225 35.5897 2.97809 36.7838 3.54418C38.9442 4.59909 41.1965 5.45814 43.5326 5.92719C45.861 6.38366 48.2746 6.48247 50.6011 5.97928C51.7596 5.72589 52.8948 5.33953 53.9626 4.80399C54.4944 4.53442 55.0102 4.2307 55.4988 3.89104C55.7434 3.72211 55.9806 3.54421 56.2092 3.35731C56.324 3.26386 56.4345 3.16861 56.5434 3.07156L56.7005 2.92418L56.8387 2.78939L56.8837 2.74447C57.1326 2.50006 57.5438 2.49289 57.8018 2.73011C58.0309 2.93858 58.0621 3.27104 57.8917 3.51365C57.8281 3.6053 57.7827 3.66641 57.7285 3.7365L57.5703 3.93776C57.4632 4.06895 57.3539 4.19656 57.2415 4.32056C57.017 4.57036 56.7826 4.80938 56.5367 5.03762C56.0464 5.49588 55.5194 5.9164 54.9635 6.30638C54.4077 6.69455 53.8171 7.03781 53.2081 7.3559C52.9009 7.50866 52.5912 7.6596 52.2722 7.79079C51.9574 7.93456 51.6312 8.04956 51.3068 8.17176C48.6892 9.10627 45.8258 9.38124 43.0549 9.16558C40.2758 8.94993 37.5796 8.27782 35.0095 7.39184C34.4188 7.19955 33.8335 6.99466 33.2431 6.81315C32.9488 6.7197 32.6569 6.62268 32.3668 6.52024C32.0755 6.4214 31.7861 6.32255 31.4983 6.21652C30.9261 5.99368 30.3501 5.7942 29.7757 5.57854C29.1967 5.38805 28.6199 5.17776 28.0353 5.00884C26.87 4.64222 25.6903 4.34213 24.502 4.09413C23.908 3.96474 23.3115 3.86769 22.7135 3.76345C22.1152 3.68079 21.5151 3.59271 20.9139 3.54239C18.5098 3.31416 16.0832 3.39143 13.719 3.85868C12.5372 4.09051 11.3725 4.41761 10.2376 4.83993C9.10352 5.26405 8.00918 5.7942 6.94324 6.38725C5.88108 6.98569 4.85054 7.65601 3.87792 8.409C2.90606 9.1602 1.9713 9.96709 1.07402 10.8207L1.06929 10.8261C0.825094 11.058 0.428704 11.058 0.183941 10.8261C-0.0411359 10.6141 -0.0596882 10.278 0.128475 10.0444Z" fill="#DAF5FE"/>
</svg>
