<svg width="318" height="252" viewBox="0 0 318 252" fill="none" xmlns="http://www.w3.org/2000/svg">
<path d="M318 252V178.578H302.55V124.416H287.685V148.533H275.385V140.767V92.9617H255.246V143.776L249.221 144.101V92.8663H242.192V71.0351H237.975V56.3735H221.508V71.0351H217.289V92.8663H210.262V120.621L207.018 120.949L206.043 38.7244H184.354V82.4667L176.724 82.7918V14.4269H174.113V0H148.039V14.4269H145.429V106.555H143.789V77.8306H139.772V63.783H133.949V22.7806H125.514V63.783H119.69V77.8306H115.674V126.431H112.862L110.653 126.382V70.0754L46.4396 70.9964V197.791H41.4192V181.174H28.1152V213.108H22.8938V201.377H11.447V221.578V225.164H0V252H318Z" fill="#3FD4FA" fill-opacity="0.2"/>
</svg>
