<svg width="331" height="298" viewBox="0 0 331 298" fill="none" xmlns="http://www.w3.org/2000/svg">
<path d="M133.494 39.0598H109.738H106.725V42.0764V65.8565H109.738V42.0764H133.494V39.0598Z" fill="#F8E9F5"/>
<path d="M133.494 39.0598H109.738H106.725V42.0764V65.8565H109.738V42.0764H133.494V39.0598Z" stroke="black" stroke-width="0.666667" stroke-miterlimit="10" stroke-linecap="round" stroke-linejoin="round"/>
<path d="M187.408 148.086H211.164H214.177V145.069V121.289H211.164V145.069H187.408V148.086Z" fill="#F8E9F5"/>
<path d="M187.408 148.086H211.164H214.177V145.069V121.289H211.164V145.069H187.408V148.086Z" stroke="black" stroke-width="0.666667" stroke-miterlimit="10" stroke-linecap="round" stroke-linejoin="round"/>
<path d="M125.466 76.3308H143.588V58.1907H125.466V76.3308ZM121.826 54.5571H147.211V79.9686H121.826V54.5571Z" fill="black" stroke="black" stroke-width="0.666667" stroke-miterlimit="10" stroke-linecap="round" stroke-linejoin="round"/>
<path d="M194.436 58.1993H176.315V76.3386H194.436V58.1993ZM198.06 79.9773H172.676V54.5658H198.06V79.9773Z" fill="black" stroke="black" stroke-width="0.666667" stroke-miterlimit="10" stroke-linecap="round" stroke-linejoin="round"/>
<path d="M143.59 109.098H125.469V127.239H143.59V109.098ZM121.834 105.454H147.219V130.867H121.834V105.454Z" fill="black" stroke="black" stroke-width="0.666667" stroke-miterlimit="10" stroke-linecap="round" stroke-linejoin="round"/>
<path d="M158.145 61.7907H161.739V58.1933H158.145V61.7907ZM154.503 69.0887V61.8191H150.884V54.5649H169.007V61.8036H165.418V65.444H169.012V72.6973H165.398V69.0895H161.772V65.4655H158.146V69.0801H154.494L154.503 69.0887Z" fill="black"/>
<path d="M158.145 61.7907H161.739V58.1933H158.145V61.7907ZM154.503 69.0887V61.8191H150.884V54.5649H169.007V61.8036H165.418V65.444H169.012V72.6973H165.398V69.0895H161.772V65.4655H158.146V69.0801H154.494L154.503 69.0887Z" stroke="black" stroke-width="0.666667" stroke-miterlimit="10" stroke-linecap="round" stroke-linejoin="round"/>
<path d="M154.496 119.978V123.611H158.121V127.241H161.743V130.874H150.891V119.987H154.505L154.496 119.978Z" fill="black"/>
<path d="M154.496 119.978V123.611H158.121V127.241H161.743V130.874H150.891V119.987H154.505L154.496 119.978Z" stroke="black" stroke-width="0.666667" stroke-miterlimit="10" stroke-linecap="round" stroke-linejoin="round"/>
<path d="M132.713 87.2586H125.454V90.8801H121.838V83.6492H132.705V87.2672L132.713 87.2586Z" fill="black"/>
<path d="M132.713 87.2586H125.454V90.8801H121.838V83.6492H132.705V87.2672L132.713 87.2586Z" stroke="black" stroke-width="0.666667" stroke-miterlimit="10" stroke-linecap="round" stroke-linejoin="round"/>
<path d="M139.976 87.2674V83.6476H147.215V87.2588H139.967L139.976 87.2674Z" fill="black"/>
<path d="M139.976 87.2674V83.6476H147.215V87.2588H139.967L139.976 87.2674Z" stroke="black" stroke-width="0.666667" stroke-miterlimit="10" stroke-linecap="round" stroke-linejoin="round"/>
<path d="M194.467 105.454H198.06V109.057H194.467V105.454Z" fill="black" stroke="black" stroke-width="0.666667" stroke-miterlimit="10" stroke-linecap="round" stroke-linejoin="round"/>
<path d="M165.399 79.9959V76.377H169.007V79.9873H165.39L165.399 79.9959Z" fill="black"/>
<path d="M165.399 79.9959V76.377H169.007V79.9873H165.39L165.399 79.9959Z" stroke="black" stroke-width="0.666667" stroke-miterlimit="10" stroke-linecap="round" stroke-linejoin="round"/>
<path d="M190.822 116.353V112.734H194.429V116.344H190.813L190.822 116.353Z" fill="black"/>
<path d="M190.822 116.353V112.734H194.429V116.344H190.813L190.822 116.353Z" stroke="black" stroke-width="0.666667" stroke-miterlimit="10" stroke-linecap="round" stroke-linejoin="round"/>
<path d="M187.182 90.902H190.797V94.5295H187.182L187.19 94.5381V90.8933L187.182 90.902Z" fill="black"/>
<path d="M187.182 90.902H190.797V94.5295H187.182L187.19 94.5381V90.8933L187.182 90.902Z" stroke="black" stroke-width="0.666667" stroke-miterlimit="10" stroke-linecap="round" stroke-linejoin="round"/>
<path d="M176.287 127.249V130.867H172.68V127.258H176.296L176.287 127.249Z" fill="black"/>
<path d="M176.287 127.249V130.867H172.68V127.258H176.296L176.287 127.249Z" stroke="black" stroke-width="0.666667" stroke-miterlimit="10" stroke-linecap="round" stroke-linejoin="round"/>
<path d="M198.06 130.877H194.467V127.279H198.06V130.877Z" fill="black" stroke="black" stroke-width="0.666667" stroke-miterlimit="10" stroke-linecap="round" stroke-linejoin="round"/>
<path d="M139.95 72.7059H129.092V61.8371H139.95V72.7059Z" fill="black" stroke="black" stroke-width="0.666667" stroke-miterlimit="10" stroke-linecap="round" stroke-linejoin="round"/>
<path d="M179.936 61.8285H190.794V72.6973H179.936V61.8285Z" fill="black" stroke="black" stroke-width="0.666667" stroke-miterlimit="10" stroke-linecap="round" stroke-linejoin="round"/>
<path d="M129.09 112.728H139.948V123.598H129.09V112.728Z" fill="black" stroke="black" stroke-width="0.666667" stroke-miterlimit="10" stroke-linecap="round" stroke-linejoin="round"/>
<path d="M154.504 119.977H154.496L154.506 119.987V119.977H154.504Z" fill="black"/>
<path d="M154.504 119.977H154.496L154.506 119.987V119.977H154.504Z" stroke="black" stroke-width="0.666667" stroke-miterlimit="10" stroke-linecap="round" stroke-linejoin="round"/>
<path d="M176.296 127.258V127.249H176.287L176.296 127.258Z" fill="black"/>
<path d="M176.296 127.258V127.249H176.287L176.296 127.258Z" stroke="black" stroke-width="0.666667" stroke-miterlimit="10" stroke-linecap="round" stroke-linejoin="round"/>
<path d="M169.024 98.1743C169.027 98.1743 169.031 98.1743 169.033 98.1743V98.1645L169.024 98.1743Z" fill="black"/>
<path d="M169.024 98.1743C169.027 98.1743 169.031 98.1743 169.033 98.1743V98.1645L169.024 98.1743Z" stroke="black" stroke-width="0.666667" stroke-miterlimit="10" stroke-linecap="round" stroke-linejoin="round"/>
<path d="M154.494 69.0791V69.0889H154.504L154.494 69.0791Z" fill="black"/>
<path d="M154.494 69.0791V69.0889H154.504L154.494 69.0791Z" stroke="black" stroke-width="0.666667" stroke-miterlimit="10" stroke-linecap="round" stroke-linejoin="round"/>
<path d="M190.813 101.801V101.81H190.823L190.813 101.801Z" fill="black"/>
<path d="M190.813 101.801V101.81H190.823L190.813 101.801Z" stroke="black" stroke-width="0.666667" stroke-miterlimit="10" stroke-linecap="round" stroke-linejoin="round"/>
<path d="M190.813 116.344V116.353H190.823L190.813 116.344Z" fill="black"/>
<path d="M190.813 116.344V116.353H190.823L190.813 116.344Z" stroke="black" stroke-width="0.666667" stroke-miterlimit="10" stroke-linecap="round" stroke-linejoin="round"/>
<path d="M165.39 79.9863V79.9961H165.4L165.39 79.9863Z" fill="black"/>
<path d="M165.39 79.9863V79.9961H165.4L165.39 79.9863Z" stroke="black" stroke-width="0.666667" stroke-miterlimit="10" stroke-linecap="round" stroke-linejoin="round"/>
<path d="M183.532 101.784H179.927V98.1725H183.532V101.784ZM183.532 112.691H176.296V109.081H183.532V112.691ZM172.682 105.461H176.288V109.072H172.682V105.461ZM169.014 112.695H165.42V109.099H169.014V112.695ZM179.898 90.8753H176.304V87.2787H179.898V90.8753ZM154.503 105.446V101.813H158.114V98.1836H154.52V90.9088H161.749V87.2822H172.647V94.5183H179.917V98.1638C176.44 98.1656 172.962 98.1673 169.484 98.169C169.333 98.169 169.183 98.1724 169.032 98.1742V105.419H165.398V101.819H161.778V116.363H179.903V119.996H172.675V123.625H176.296V127.249H183.57V130.873H187.193V123.605H198.066V119.976H190.813V116.353H187.207V109.063H190.813V101.81H187.182V94.5381H183.576V90.8933H187.182V87.2469H183.543V83.6194H165.39V79.9962H161.75V72.7351H158.127V79.9686H154.5V79.5814C154.498 76.0839 154.497 72.5863 154.494 69.0887H150.857V98.181H139.986V101.807H150.875V105.446H154.494" fill="black"/>
<path d="M154.503 105.446V101.813H158.114V98.1836H154.52V90.9088H161.749V87.2822H172.647V94.5183H179.917V98.1638C176.44 98.1656 172.962 98.1673 169.484 98.169C169.333 98.169 169.183 98.1724 169.032 98.1742V105.419H165.398V101.819H161.778V116.363H179.903V119.996H172.675V123.625H176.296V127.249H183.57V130.873H187.193V123.605H198.066V119.976H190.813V116.353H187.207V109.063H190.813V101.81H187.182V94.5381H183.576V90.8933H187.182V87.2469H183.543V83.6194H165.39V79.9962H161.75V72.7351H158.127V79.9686H154.5V79.5814C154.498 76.0839 154.497 72.5863 154.494 69.0887H150.857V98.181H139.986V101.807H150.875V105.446H154.494M183.532 101.784H179.927V98.1725H183.532V101.784ZM183.532 112.691H176.296V109.081H183.532V112.691ZM172.682 105.461H176.288V109.072H172.682V105.461ZM169.014 112.695H165.42V109.099H169.014V112.695ZM179.898 90.8753H176.304V87.2787H179.898V90.8753Z" stroke="black" stroke-width="0.666667" stroke-miterlimit="10" stroke-linecap="round" stroke-linejoin="round"/>
<path d="M187.191 90.8924H187.182V90.9021L187.191 90.8924Z" fill="black"/>
<path d="M187.191 90.8924H187.182V90.9021L187.191 90.8924Z" stroke="black" stroke-width="0.666667" stroke-miterlimit="10" stroke-linecap="round" stroke-linejoin="round"/>
<path d="M187.182 94.5281V94.5379H187.191L187.182 94.5281Z" fill="black"/>
<path d="M187.182 94.5281V94.5379H187.191L187.182 94.5281Z" stroke="black" stroke-width="0.666667" stroke-miterlimit="10" stroke-linecap="round" stroke-linejoin="round"/>
<mask id="mask0_77_4856" style="mask-type:luminance" maskUnits="userSpaceOnUse" x="-1" y="289" width="65" height="9">
<path d="M-0.000122286 289.861H63.4293V297.791H-0.000122286V289.861Z" fill="white"/>
</mask>
<g mask="url(#mask0_77_4856)">
<g opacity="0.270004">
<path d="M59.4689 297.791H3.96064C1.77318 297.791 0 296.015 0 293.826C0 291.636 1.77318 289.86 3.96064 289.86H59.4689C61.6564 289.86 63.4295 291.636 63.4295 293.826C63.4295 296.015 61.6564 297.791 59.4689 297.791Z" fill="#F5F5F5"/>
</g>
</g>
<mask id="mask1_77_4856" style="mask-type:luminance" maskUnits="userSpaceOnUse" x="221" y="278" width="111" height="9">
<path d="M221.618 278.377H331V286.307H221.618V278.377Z" fill="white"/>
</mask>
<g mask="url(#mask1_77_4856)">
<g opacity="0.270004">
<path d="M327.039 286.307H225.58C223.391 286.307 221.619 284.532 221.619 282.342C221.619 280.153 223.391 278.377 225.58 278.377H327.039C329.227 278.377 331 280.153 331 282.342C331 284.532 329.227 286.307 327.039 286.307Z" fill="#F5F5F5"/>
</g>
</g>
<path d="M75.5311 33.367C75.5792 33.355 75.7958 33.3791 76.1233 33.4316C77.6738 33.6811 81.711 34.5862 82.1596 35.5293C82.7029 36.671 83.4635 38.9546 83.2461 39.6618C83.0286 40.3691 82.2138 42.5984 82.2138 42.5984C82.2138 42.5984 92.301 50.627 93.0798 53.3536C93.8576 56.0812 97.5553 110.921 97.3601 112.869C97.1659 114.817 93.8576 131.181 93.0798 132.156C92.301 133.13 90.5494 134.688 90.5494 134.688C90.5494 134.688 90.7445 144.623 89.9657 145.013C89.187 145.402 69.3494 148.52 67.5917 148.714C65.834 148.91 47.3278 150.273 47.3278 150.273C47.3278 150.273 45.8503 143.844 46.1116 143.259C46.3738 142.675 46.0807 122.025 46.0807 122.025C46.0807 122.025 33.335 130.402 30.8054 129.623C28.2759 128.843 25.161 123.194 24.7725 122.415C24.3831 121.635 18.4697 108.157 18.4697 107.845C18.4697 107.533 20.1337 107.325 20.9657 107.013C21.7968 106.7 21.7968 102.641 21.9008 102.12C22.0048 101.601 26.788 95.1475 27.9312 92.6488C29.0752 90.1519 41.4479 57.0543 44.5671 54.6606C47.6863 52.2661 56.9828 47.1664 56.9828 47.1664C56.9828 47.1664 57.6454 42.7955 58.8006 41.3379C59.9541 39.8804 69.3701 33.3713 69.7569 32.8663" fill="#F8E9F5"/>
<path d="M75.5311 33.367C75.5792 33.355 75.7958 33.3791 76.1233 33.4316C77.6738 33.6811 81.711 34.5863 82.1596 35.5293C82.7029 36.671 83.4635 38.9546 83.2461 39.6618C83.0286 40.3691 82.2138 42.5984 82.2138 42.5984C82.2138 42.5984 92.301 50.627 93.0798 53.3536C93.8576 56.0812 97.5553 110.921 97.3601 112.869C97.1659 114.817 93.8576 131.181 93.0798 132.156C92.301 133.13 90.5494 134.688 90.5494 134.688C90.5494 134.688 90.7445 144.623 89.9657 145.013C89.187 145.402 69.3494 148.52 67.5917 148.714C65.834 148.91 47.3278 150.273 47.3278 150.273C47.3278 150.273 45.8503 143.844 46.1116 143.259C46.3738 142.675 46.0807 122.025 46.0807 122.025C46.0807 122.025 33.335 130.402 30.8054 129.623C28.2759 128.843 25.161 123.194 24.7725 122.415C24.3831 121.635 18.4697 108.157 18.4697 107.845C18.4697 107.533 20.1337 107.325 20.9657 107.013C21.7968 106.7 21.7968 102.641 21.9008 102.12C22.0048 101.601 26.788 95.1475 27.9312 92.6488C29.0752 90.1519 41.4479 57.0543 44.5671 54.6606C47.6863 52.2661 56.9828 47.1664 56.9828 47.1664C56.9828 47.1664 57.6454 42.7955 58.8006 41.3379C59.9541 39.8804 69.3701 33.3713 69.7569 32.8663" stroke="black" stroke-width="0.666667" stroke-miterlimit="10" stroke-linecap="round" stroke-linejoin="round"/>
<path d="M73.039 12.063L76.3403 40.2846C76.3403 40.2846 68.1535 48.0181 66.1723 49.2734C64.192 50.5296 63.3995 50.6613 63.3995 50.6613C63.3995 50.6613 63.7296 39.8217 63.6634 37.3102C63.5981 34.7986 62.6732 29.5776 62.607 29.3789C62.5417 29.181 70.0676 12.7238 70.0676 12.7238" fill="#FFC6C2"/>
<path d="M73.039 12.063L76.3403 40.2846C76.3403 40.2846 68.1535 48.0181 66.1723 49.2734C64.192 50.5296 63.3995 50.6613 63.3995 50.6613C63.3995 50.6613 63.7296 39.8217 63.6634 37.3102C63.5981 34.7986 62.6732 29.5776 62.607 29.3789C62.5417 29.181 70.0676 12.7238 70.0676 12.7238" stroke="black" stroke-width="0.666667" stroke-miterlimit="10" stroke-linecap="round" stroke-linejoin="round"/>
<path d="M73.0389 24.5545C70.7939 29.1147 65.2483 33.3445 60.362 34.2041C55.4765 35.0628 52.9014 31.0317 52.9014 31.0317L48.1483 19.8618C48.1483 19.8618 48.346 9.61772 55.8727 5.58581C63.3995 1.5539 67.8234 4.46211 69.0774 6.04872C70.3323 7.63446 71.5202 10.5427 71.5202 10.5427" fill="#FFC6C2"/>
<path d="M73.0389 24.5545C70.7939 29.1147 65.2483 33.3445 60.362 34.2041C55.4765 35.0628 52.9014 31.0317 52.9014 31.0317L48.1483 19.8618C48.1483 19.8618 48.346 9.61772 55.8727 5.58581C63.3995 1.5539 67.8234 4.46211 69.0774 6.04872C70.3323 7.63446 71.5202 10.5427 71.5202 10.5427" stroke="black" stroke-width="0.666667" stroke-miterlimit="10" stroke-linecap="round" stroke-linejoin="round"/>
<path d="M70.5301 14.1115C70.5301 14.1115 71.124 12.0628 73.039 11.5337C74.9532 11.0054 76.802 14.0452 75.878 16.4914C74.9532 18.9367 71.9827 19.6638 71.9827 19.6638" fill="#FFC6C2"/>
<path d="M70.5301 14.1115C70.5301 14.1115 71.124 12.0628 73.039 11.5337C74.9532 11.0054 76.802 14.0452 75.878 16.4914C74.9532 18.9367 71.9827 19.6638 71.9827 19.6638" stroke="black" stroke-width="0.666667" stroke-miterlimit="10" stroke-linecap="round" stroke-linejoin="round"/>
<path d="M71.7127 17.1587L73.039 15.178L71.7127 17.1587Z" fill="#FABB9B"/>
<path d="M71.7127 17.1587L73.039 15.178" stroke="black" stroke-width="0.666667" stroke-miterlimit="10" stroke-linecap="round" stroke-linejoin="round"/>
<path d="M55.4891 20.4454L55.93 27.6204L57.8596 26.7376" fill="#FA7D64"/>
<path d="M55.4891 20.4454L55.93 27.6204L57.8596 26.7376" stroke="black" stroke-width="0.666667" stroke-miterlimit="10" stroke-linecap="round" stroke-linejoin="round"/>
<path d="M63.4563 22.6531C63.4563 23.5522 62.7283 24.2819 61.8293 24.2819C60.9311 24.2819 60.2031 23.5522 60.2031 22.6531C60.2031 21.754 60.9311 21.0243 61.8293 21.0243C62.7283 21.0243 63.4563 21.754 63.4563 22.6531Z" fill="#FA7D64"/>
<path d="M54.6896 25.6612C54.6896 26.5603 53.9607 27.29 53.0625 27.29C52.1643 27.29 51.4363 26.5603 51.4363 25.6612C51.4363 24.7621 52.1643 24.0333 53.0625 24.0333C53.9607 24.0333 54.6896 24.7621 54.6896 25.6612Z" fill="#FA7D64"/>
<path d="M49.5853 23.2387C49.5853 23.2387 44.087 23.5278 43.9409 20.445C43.7956 17.3629 46.8606 18.0934 45.4003 14.8789C43.9409 11.6644 41.095 7.57313 45.0359 4.14008C48.9767 0.707018 53.0981 1.43751 55.4893 2.16801C57.8796 2.8985 58.6592 3.19018 60.2037 1.87546C61.7474 0.560749 64.7394 -0.0243349 66.5641 0.560749C68.388 1.14497 69.7022 3.01724 70.9425 3.54209C72.1836 4.06694 73.7402 5.23625 73.3268 7.06205C72.9133 8.88871 73.6431 10.4228 74.592 10.6422C75.54 10.8608 77.0003 11.2996 77.2187 13.4911C77.4378 15.6826 75.1782 17.6882 75.1782 17.6882C75.1782 17.6882 77.0725 13.7105 74.7381 12.3949C72.4019 11.0802 70.7972 12.1032 70.2136 13.7836L69.6291 15.4631C69.6291 15.4631 67.2938 15.8288 66.4911 14.2216C65.6883 12.6143 65.6883 11.79 65.6883 11.79C65.6883 11.79 63.6633 12.3949 61.8299 10.7876C59.9957 9.18125 57.9123 6.55096 57.8598 6.55096C57.8065 6.55096 56.9307 11.0802 53.8657 13.8567C50.8015 16.6324 49.122 17.9472 48.8306 18.386C48.5384 18.8239 49.5853 23.2387 49.5853 23.2387Z" fill="#1B1D28"/>
<path d="M49.5853 23.2387C49.5853 23.2387 44.087 23.5278 43.9409 20.445C43.7956 17.3629 46.8606 18.0934 45.4003 14.8789C43.9409 11.6644 41.095 7.57313 45.0359 4.14008C48.9767 0.707019 53.0981 1.43751 55.4893 2.168C57.8796 2.8985 58.6592 3.19018 60.2037 1.87546C61.7474 0.560748 64.7394 -0.0243345 66.5641 0.560748C68.388 1.14497 69.7022 3.01723 70.9425 3.54209C72.1836 4.06694 73.7402 5.23625 73.3268 7.06205C72.9133 8.88871 73.6431 10.4228 74.592 10.6422C75.54 10.8608 77.0003 11.2996 77.2187 13.4911C77.4378 15.6826 75.1782 17.6882 75.1782 17.6882C75.1782 17.6882 77.0725 13.7105 74.7381 12.3949C72.4019 11.0802 70.7972 12.1032 70.2136 13.7836L69.6291 15.4631C69.6291 15.4631 67.2938 15.8288 66.4911 14.2216C65.6883 12.6143 65.6883 11.79 65.6883 11.79C65.6883 11.79 63.6633 12.3949 61.8299 10.7876C59.9957 9.18125 57.9123 6.55096 57.8598 6.55096C57.8065 6.55096 56.9307 11.0802 53.8657 13.8567C50.8015 16.6324 49.122 17.9472 48.8306 18.386C48.5384 18.8239 49.5853 23.2387 49.5853 23.2387Z" stroke="black" stroke-width="0.666667" stroke-miterlimit="10" stroke-linecap="round" stroke-linejoin="round"/>
<path d="M46.112 19.6635C46.112 19.6635 47.7004 19.0354 48.5435 18.4237L46.112 19.6635Z" fill="#1B1D28"/>
<path d="M46.112 19.6635C46.112 19.6635 47.7004 19.0354 48.5435 18.4237" stroke="black" stroke-width="0.666667" stroke-miterlimit="10" stroke-linecap="round" stroke-linejoin="round"/>
<path d="M49.6698 10.9409C49.6698 10.9409 51.0201 6.97439 54.4426 6.56827L57.8652 6.16301L56.019 5.21656" fill="#1B1D28"/>
<path d="M49.6698 10.9409C49.6698 10.9409 51.0201 6.97439 54.4426 6.56827L57.8652 6.16301L56.019 5.21656" stroke="black" stroke-width="0.666667" stroke-miterlimit="10" stroke-linecap="round" stroke-linejoin="round"/>
<path d="M65.2501 5.48679C65.2501 5.48679 68.3572 6.52359 68.5368 8.32616C68.7173 10.1296 68.9425 10.0392 68.9425 10.0392" fill="#1B1D28"/>
<path d="M65.2501 5.48679C65.2501 5.48679 68.3572 6.52359 68.5368 8.32616C68.7173 10.1296 68.9425 10.0392 68.9425 10.0392" stroke="black" stroke-width="0.666667" stroke-miterlimit="10" stroke-linecap="round" stroke-linejoin="round"/>
<path d="M60.1341 19.4034C60.1341 19.7114 59.8849 19.961 59.5772 19.961C59.2695 19.961 59.0202 19.7114 59.0202 19.4034C59.0202 19.0954 59.2695 18.8459 59.5772 18.8459C59.8849 18.8459 60.1341 19.0954 60.1341 19.4034Z" fill="black"/>
<path d="M60.1341 19.4034C60.1341 19.7114 59.8849 19.961 59.5772 19.961C59.2695 19.961 59.0202 19.7114 59.0202 19.4034C59.0202 19.0954 59.2695 18.8459 59.5772 18.8459C59.8849 18.8459 60.1341 19.0954 60.1341 19.4034Z" stroke="black" stroke-width="0.666667" stroke-miterlimit="10" stroke-linecap="round" stroke-linejoin="round"/>
<path d="M52.7527 22.0956C52.7527 22.4036 52.5035 22.6531 52.1958 22.6531C51.8881 22.6531 51.6388 22.4036 51.6388 22.0956C51.6388 21.7875 51.8881 21.538 52.1958 21.538C52.5035 21.538 52.7527 21.7875 52.7527 22.0956Z" fill="black"/>
<path d="M52.7527 22.0956C52.7527 22.4036 52.5035 22.6531 52.1958 22.6531C51.8881 22.6531 51.6388 22.4036 51.6388 22.0956C51.6388 21.7875 51.8881 21.538 52.1958 21.538C52.5035 21.538 52.7527 21.7875 52.7527 22.0956Z" stroke="black" stroke-width="0.666667" stroke-miterlimit="10" stroke-linecap="round" stroke-linejoin="round"/>
<path d="M60.9055 26.9476L56.9827 28.8337C56.9827 28.8337 57.5079 30.5338 59.2063 30.194C60.9055 29.8533 61.1831 27.9991 60.9055 26.9476Z" fill="white"/>
<path d="M60.9055 26.9476L56.9827 28.8337C56.9827 28.8337 57.5079 30.5338 59.2063 30.194C60.9055 29.8533 61.1831 27.9991 60.9055 26.9476Z" stroke="black" stroke-width="0.666667" stroke-miterlimit="10" stroke-linecap="round" stroke-linejoin="round"/>
<path d="M60.1341 13.0284C60.1341 13.0284 58.2449 12.7359 57.4662 13.8561" stroke="black" stroke-width="0.666667" stroke-miterlimit="10" stroke-linecap="round" stroke-linejoin="round"/>
<path d="M50.4117 17.7523C50.4117 17.7523 51.0554 15.9506 52.753 15.7562" stroke="black" stroke-width="0.666667" stroke-miterlimit="10" stroke-linecap="round" stroke-linejoin="round"/>
<path d="M72.4249 25.6612C72.4249 25.6612 71.2852 29.441 70.5297 31.6325C69.7751 33.8248 63.6717 38.0615 63.6717 38.0615L62.7589 33.5374C62.7589 33.5374 66.496 31.5886 69.4734 29.2483C72.4507 26.9088 72.4249 25.6612 72.4249 25.6612Z" fill="black"/>
<path d="M72.4249 25.6612C72.4249 25.6612 71.2852 29.441 70.5297 31.6325C69.7751 33.8248 63.6717 38.0615 63.6717 38.0615L62.7589 33.5374C62.7589 33.5374 66.496 31.5886 69.4734 29.2483C72.4507 26.9088 72.4249 25.6612 72.4249 25.6612Z" stroke="black" stroke-width="0.666667" stroke-miterlimit="10" stroke-linecap="round" stroke-linejoin="round"/>
<path d="M87.9755 51.488C87.4855 51.488 79.9682 55.414 78.8242 57.7045C77.6802 59.9949 69.4736 105.636 69.4736 105.636L71.7126 77.0079" fill="#F8E9F5"/>
<path d="M87.9755 51.488C87.4855 51.488 79.9682 55.414 78.8242 57.7045C77.6802 59.9949 69.4736 105.636 69.4736 105.636L71.7126 77.0079" stroke="black" stroke-width="0.666667" stroke-miterlimit="10" stroke-linecap="round" stroke-linejoin="round"/>
<path d="M92.8779 72.4269C92.7146 73.4087 89.4458 108.416 87.9752 113.16C86.5046 117.904 76.0409 129.192 71.7124 130.501C67.3847 131.809 56.9811 130.336 53.7674 127.719C50.5537 125.102 43.8529 119.049 43.8529 119.049L43.0347 117.086L36.9897 111.524L40.0943 103.999L48.5433 105.636C48.5433 105.636 51.5499 104.327 52.1954 104.327C52.8409 104.327 70.9749 106.453 71.7124 106.453C72.4507 106.453 80.4588 106.781 82.0927 107.598" fill="#F8E9F5"/>
<path d="M92.8779 72.4269C92.7146 73.4087 89.4458 108.416 87.9752 113.16C86.5046 117.904 76.0409 129.192 71.7124 130.501C67.3847 131.809 56.9811 130.336 53.7674 127.719C50.5537 125.102 43.8529 119.049 43.8529 119.049L43.0347 117.086L36.9897 111.524L40.0943 103.999L48.5433 105.636C48.5433 105.636 51.5499 104.327 52.1954 104.327C52.8409 104.327 70.9749 106.453 71.7124 106.453C72.4507 106.453 80.4588 106.781 82.0927 107.598" stroke="black" stroke-width="0.666667" stroke-miterlimit="10" stroke-linecap="round" stroke-linejoin="round"/>
<path d="M39.5625 79.9459C39.9518 80.5302 47.5035 99.4275 47.3282 98.8424C47.152 98.2582 43.0495 78.5822 43.4466 77.4137C43.8437 76.2444 46.112 61.244 46.112 61.244" fill="#F8E9F5"/>
<path d="M39.5625 79.9459C39.9518 80.5302 47.5035 99.4275 47.3282 98.8424C47.152 98.2582 43.0495 78.5822 43.4466 77.4137C43.8437 76.2444 46.112 61.244 46.112 61.244" stroke="black" stroke-width="0.666667" stroke-miterlimit="10" stroke-linecap="round" stroke-linejoin="round"/>
<path d="M69.4733 49.1675C69.4733 49.1675 76.3546 44.8792 77.2339 42.9218L69.4733 49.1675Z" fill="#F8E9F5"/>
<path d="M69.4733 49.1675C69.4733 49.1675 76.3546 44.8792 77.2339 42.9218" stroke="black" stroke-width="0.666667" stroke-miterlimit="10" stroke-linecap="round" stroke-linejoin="round"/>
<path d="M60.1342 46.464C59.8617 46.7437 60.833 50.5699 60.9989 50.6611C61.1656 50.7523 60.4969 49.54 60.0861 49.1675" fill="#F8E9F5"/>
<path d="M60.1342 46.464C59.8617 46.7437 60.833 50.5699 60.9989 50.6611C61.1656 50.7523 60.4969 49.54 60.0861 49.1675" stroke="black" stroke-width="0.666667" stroke-miterlimit="10" stroke-linecap="round" stroke-linejoin="round"/>
<path d="M48.5437 105.635L43.0342 117.087L48.5437 105.635Z" fill="#F8E9F5"/>
<path d="M48.5437 105.635L43.0342 117.087" stroke="black" stroke-width="0.666667" stroke-miterlimit="10" stroke-linecap="round" stroke-linejoin="round"/>
<path d="M16.2279 90.4095L22.9811 107.434C22.9811 107.434 23.4693 108.574 23.9584 108.655C24.4466 108.736 33.5153 108.329 33.7001 108.248C33.8849 108.167 34.7797 107.922 34.7797 107.352C34.7797 106.782 29.1404 89.6515 29.1404 89.6515C29.1404 89.6515 28.7657 88.292 27.6225 88.2103C26.4802 88.1286 16.7978 89.513 16.7978 89.513C16.7978 89.513 15.9263 89.6498 16.2279 90.4095Z" fill="#1B1D28"/>
<path d="M16.2279 90.4095L22.9811 107.434C22.9811 107.434 23.4693 108.574 23.9584 108.655C24.4466 108.736 33.5153 108.329 33.7001 108.248C33.8849 108.167 34.7797 107.922 34.7797 107.352C34.7797 106.782 29.1404 89.6515 29.1404 89.6515C29.1404 89.6515 28.7657 88.292 27.6225 88.2103C26.4802 88.1286 16.7978 89.513 16.7978 89.513C16.7978 89.513 15.9263 89.6498 16.2279 90.4095Z" stroke="black" stroke-width="0.666667" stroke-miterlimit="10" stroke-linecap="round" stroke-linejoin="round"/>
<path d="M39.7778 104.768C39.7778 104.768 38.0587 103.191 37.8653 102.546C37.6719 101.901 36.448 99.9661 35.353 99.1935C34.258 98.4191 32.7762 98.2901 32.7762 98.2901L33.9356 101.529L27.6225 98.2901C27.6225 98.2901 27.6225 100.805 27.9448 101.128C28.2671 101.45 29.877 103.642 29.877 103.642C29.877 103.642 30.3927 107.963 30.6506 108.285C30.9084 108.607 36.9895 111.524 36.9895 111.524L39.7778 104.768Z" fill="#FFC6C2"/>
<path d="M39.7778 104.768C39.7778 104.768 38.0587 103.191 37.8653 102.546C37.6719 101.901 36.448 99.9661 35.353 99.1935C34.258 98.4191 32.7762 98.2901 32.7762 98.2901L33.9356 101.529L27.6225 98.2901C27.6225 98.2901 27.6225 100.805 27.9448 101.128C28.2671 101.45 29.877 103.642 29.877 103.642C29.877 103.642 30.3927 107.963 30.6506 108.285C30.9084 108.607 36.9895 111.524 36.9895 111.524L39.7778 104.768Z" stroke="black" stroke-width="0.666667" stroke-miterlimit="10" stroke-linecap="round" stroke-linejoin="round"/>
<path d="M18.4699 107.845C18.4699 107.845 15.6413 100.031 15.7702 99.451C15.8991 98.8702 16.6624 97.4513 17.1179 97.0005C17.5743 96.5488 20.4726 93.0667 20.4726 93.0667C20.4726 93.0667 20.7949 94.55 20.7949 94.8727C20.7949 95.1945 19.5065 97.1941 19.3776 97.3877C19.2487 97.5804 20.7305 99.1928 20.7949 99.7082C20.8594 100.224 21.9656 101.32 21.9011 102.121C21.8367 102.922 22.2784 103.966 21.9037 104.907C21.5289 105.849 20.9651 107.012 20.9651 107.012L18.4699 107.845Z" fill="#FFC6C2"/>
<path d="M18.4699 107.845C18.4699 107.845 15.6413 100.031 15.7702 99.451C15.8991 98.8702 16.6624 97.4513 17.1179 97.0005C17.5743 96.5488 20.4726 93.0667 20.4726 93.0667C20.4726 93.0667 20.7949 94.55 20.7949 94.8727C20.7949 95.1945 19.5065 97.1941 19.3776 97.3877C19.2487 97.5804 20.7305 99.1928 20.7949 99.7082C20.8594 100.224 21.9656 101.32 21.9011 102.121C21.8367 102.922 22.2784 103.966 21.9037 104.907C21.5289 105.849 20.9651 107.012 20.9651 107.012L18.4699 107.845Z" stroke="black" stroke-width="0.666667" stroke-miterlimit="10" stroke-linecap="round" stroke-linejoin="round"/>
<path d="M47.3308 140.514C47.3308 140.514 61.5076 140.765 63.3925 140.514C65.2775 140.262 90.5497 134.688 90.5497 134.688" fill="#F8E9F5"/>
<path d="M47.3308 140.514C47.3308 140.514 61.5076 140.765 63.3925 140.514C65.2775 140.262 90.5497 134.688 90.5497 134.688" stroke="black" stroke-width="0.666667" stroke-miterlimit="10" stroke-linecap="round" stroke-linejoin="round"/>
<path d="M89.9657 145.013C89.9657 145.013 88.3137 159.225 86.819 162.551C85.3234 165.876 68.9402 183.672 68.9402 183.672L64.934 200.8L72.0336 208.284L62.8961 221.089L60.9029 218.761L47.4464 274.306L35.3186 272.643L41.2991 208.949C41.2991 208.949 27.179 197.307 30.6678 187.829C34.1557 178.349 44.1243 170.367 44.1243 170.367L48.544 150.273L89.9657 145.013Z" fill="#1B1D28"/>
<path d="M89.9657 145.013C89.9657 145.013 88.3137 159.225 86.819 162.551C85.3234 165.876 68.9402 183.672 68.9402 183.672L64.934 200.8L72.0336 208.284L62.8961 221.089L60.9029 218.761L47.4464 274.306L35.3186 272.643L41.2991 208.949C41.2991 208.949 27.179 197.307 30.6678 187.829C34.1557 178.349 44.1243 170.367 44.1243 170.367L48.544 150.273L89.9657 145.013Z" stroke="black" stroke-width="0.666667" stroke-miterlimit="10" stroke-linecap="round" stroke-linejoin="round"/>
<path d="M43.0344 171.295L58.9088 153.071L43.0344 171.295Z" fill="#1B1D28"/>
<path d="M43.0344 171.295L58.9088 153.071" stroke="black" stroke-width="0.666667" stroke-miterlimit="10" stroke-linecap="round" stroke-linejoin="round"/>
<path d="M68.9403 183.671L57.9188 192.818L64.9341 200.8" fill="#1B1D28"/>
<path d="M68.9403 183.671L57.9188 192.818L64.9341 200.8" stroke="black" stroke-width="0.666667" stroke-miterlimit="10" stroke-linecap="round" stroke-linejoin="round"/>
<path d="M41.2995 208.949L61.5832 219.555L41.2995 208.949Z" fill="#1B1D28"/>
<path d="M41.2995 208.949L61.5832 219.555" stroke="black" stroke-width="0.666667" stroke-miterlimit="10" stroke-linecap="round" stroke-linejoin="round"/>
<path d="M54.2753 215.734L65.6389 201.543L54.2753 215.734Z" fill="#1B1D28"/>
<path d="M54.2753 215.734L65.6389 201.543" stroke="black" stroke-width="0.666667" stroke-miterlimit="10" stroke-linecap="round" stroke-linejoin="round"/>
<path d="M36.3157 262.027L50.7856 260.521L36.3157 262.027Z" fill="#1B1D28"/>
<path d="M36.3157 262.027L50.7856 260.521" stroke="black" stroke-width="0.666667" stroke-miterlimit="10" stroke-linecap="round" stroke-linejoin="round"/>
<path d="M65.0062 218.132L68.9402 220.748L74.5357 212.472L71.5592 208.948L65.0062 218.132Z" fill="#FFC6C2"/>
<path d="M65.0062 218.132L68.9402 220.748L74.5357 212.472L71.5592 208.948L65.0062 218.132Z" stroke="black" stroke-width="0.666667" stroke-miterlimit="10" stroke-linecap="round" stroke-linejoin="round"/>
<path d="M68.9404 220.748C68.9404 220.748 76.2256 229.548 76.5454 230.429C76.8651 231.31 79.2657 248.21 80.0659 249.091C80.8662 249.973 85.0262 252.696 85.0262 252.696C85.0262 252.696 85.5866 222.66 85.5866 222.419C85.5866 222.179 74.5358 212.472 74.5358 212.472L68.9404 220.748Z" fill="#F8E9F5"/>
<path d="M68.9404 220.748C68.9404 220.748 76.2256 229.548 76.5454 230.429C76.8651 231.31 79.2657 248.21 80.0659 249.091C80.8662 249.973 85.0262 252.696 85.0262 252.696C85.0262 252.696 85.5866 222.66 85.5866 222.419C85.5866 222.179 74.5358 212.472 74.5358 212.472L68.9404 220.748Z" stroke="black" stroke-width="0.666667" stroke-miterlimit="10" stroke-linecap="round" stroke-linejoin="round"/>
<path d="M45.9845 274.306L40.438 292.923H14.7506C14.7506 292.923 15.9178 289.563 21.9017 287.663C27.8857 285.764 31.8266 284.157 33.1407 281.673C34.4541 279.189 36.3158 272.779 36.3158 272.779L45.9845 274.306Z" fill="#F8E9F5"/>
<path d="M45.9845 274.306L40.438 292.923H14.7506C14.7506 292.923 15.9178 289.563 21.9017 287.663C27.8857 285.764 31.8266 284.157 33.1407 281.673C34.4541 279.189 36.3158 272.779 36.3158 272.779L45.9845 274.306Z" stroke="black" stroke-width="0.666667" stroke-miterlimit="10" stroke-linecap="round" stroke-linejoin="round"/>
<path d="M83.8429 220.748L83.1467 251.431L85.0265 252.696L85.5869 222.419L83.8429 220.748Z" fill="#FFEEED"/>
<path d="M83.8429 220.748L83.1467 251.431L85.0265 252.696L85.5869 222.419L83.8429 220.748Z" stroke="black" stroke-width="0.666667" stroke-miterlimit="10" stroke-linecap="round" stroke-linejoin="round"/>
<path d="M78.6757 242.982L83.3506 242.45L83.1469 251.431L80.0655 249.092L78.6757 242.982Z" fill="#FFEEED"/>
<path d="M78.6757 242.982L83.3506 242.45L83.1469 251.431L80.0655 249.092L78.6757 242.982Z" stroke="black" stroke-width="0.666667" stroke-miterlimit="10" stroke-linecap="round" stroke-linejoin="round"/>
<path d="M40.8281 291.613H16.1171L14.7505 292.923H40.4379L40.8281 291.613Z" fill="#FFEEED"/>
<path d="M40.8281 291.613H16.1171L14.7505 292.923H40.4379L40.8281 291.613Z" stroke="black" stroke-width="0.666667" stroke-miterlimit="10" stroke-linecap="round" stroke-linejoin="round"/>
<path d="M22.6022 287.439C22.6022 287.439 24.9856 288.025 25.1893 291.614H16.118C16.118 291.614 17.6703 288.348 22.6022 287.439Z" fill="#FFEEED"/>
<path d="M22.6022 287.439C22.6022 287.439 24.9856 288.025 25.1893 291.614H16.118C16.118 291.614 17.6703 288.348 22.6022 287.439Z" stroke="black" stroke-width="0.666667" stroke-miterlimit="10" stroke-linecap="round" stroke-linejoin="round"/>
<path d="M76.508 147.078C76.508 147.078 80.4352 153.466 83.3807 154.056C86.3254 154.645 87.9757 154.056 87.9757 154.056" fill="#1B1D28"/>
<path d="M76.508 147.078C76.508 147.078 80.4352 153.466 83.3807 154.056C86.3254 154.645 87.9757 154.056 87.9757 154.056" stroke="black" stroke-width="0.666667" stroke-miterlimit="10" stroke-linecap="round" stroke-linejoin="round"/>
<path d="M79.7107 151.365C79.7107 151.365 48.2396 186.994 47.3311 187.287C46.4226 187.58 45.3018 192.254 45.7891 192.839C46.2765 193.423 60.039 207.888 60.039 207.888" stroke="black" stroke-width="0.666667" stroke-miterlimit="10" stroke-linecap="round" stroke-linejoin="round"/>
<path d="M50.7861 213.909L44.4282 261.274L50.7861 213.909Z" fill="#1B1D28"/>
<path d="M50.7861 213.909L44.4282 261.274" stroke="black" stroke-width="0.666667" stroke-miterlimit="10" stroke-linecap="round" stroke-linejoin="round"/>
<path d="M267.981 111.872C267.981 111.872 273.773 188.562 274.464 191.562C275.155 194.562 288.527 253.413 288.527 253.413L279.047 257.336L254.936 204.717L248.819 120.942L257.931 107.555L267.981 111.872Z" fill="#F8E9F5"/>
<path d="M267.981 111.872C267.981 111.872 273.773 188.562 274.464 191.562C275.155 194.562 288.527 253.413 288.527 253.413L279.047 257.336L254.936 204.717L248.819 120.942L257.931 107.555L267.981 111.872Z" stroke="black" stroke-width="0.666667" stroke-miterlimit="10" stroke-linecap="round" stroke-linejoin="round"/>
<path d="M266.876 110.098L233.722 111.36C233.722 111.36 224.667 128.096 225.358 140.327C226.05 152.559 247.029 181.176 247.029 181.176C247.029 181.176 242.187 192.716 241.496 198.486C240.804 204.255 238.269 257.336 238.269 257.336L247.029 255.259C247.029 255.259 271.698 182.1 272.158 179.33C272.62 176.56 258.458 129.48 258.458 129.48" fill="#F8E9F5"/>
<path d="M266.876 110.098L233.722 111.36C233.722 111.36 224.667 128.096 225.358 140.327C226.05 152.559 247.029 181.176 247.029 181.176C247.029 181.176 242.187 192.716 241.496 198.486C240.804 204.255 238.269 257.336 238.269 257.336L247.029 255.259C247.029 255.259 271.698 182.1 272.158 179.33C272.62 176.56 258.458 129.48 258.458 129.48" stroke="black" stroke-width="0.666667" stroke-miterlimit="10" stroke-linecap="round" stroke-linejoin="round"/>
<path d="M275.749 57.4255C275.749 57.4255 283.512 62.841 282.069 70.6449L276.568 92.7172L269.646 95.8035C269.646 95.8035 270.044 60.9291 269.965 60.6108C269.885 60.2924 275.749 57.4255 275.749 57.4255Z" fill="#FFC6C2"/>
<path d="M275.749 57.4255C275.749 57.4255 283.512 62.841 282.069 70.6449L276.568 92.7172L269.646 95.8035C269.646 95.8035 270.044 60.9291 269.965 60.6108C269.885 60.2924 275.749 57.4255 275.749 57.4255Z" stroke="black" stroke-width="0.666667" stroke-miterlimit="10" stroke-linecap="round" stroke-linejoin="round"/>
<path d="M279.434 92.519L281.54 89.6392C281.54 89.6392 283.702 86.5606 284.358 86.4668C285.012 86.3731 290.721 86.4668 290.721 86.4668C290.721 86.4668 291.843 85.9988 290.721 88.247C289.597 90.4944 284.45 97.2392 284.45 97.2392C284.45 97.2392 284.178 98.7381 282.068 98.9257C279.959 99.1132 275.749 98.9257 275.749 98.9257L279.434 92.519Z" fill="#1B1D28"/>
<path d="M279.434 92.519L281.54 89.6392C281.54 89.6392 283.702 86.5606 284.358 86.4668C285.012 86.3731 290.721 86.4668 290.721 86.4668C290.721 86.4668 291.843 85.9988 290.721 88.247C289.597 90.4944 284.45 97.2392 284.45 97.2392C284.45 97.2392 284.178 98.7381 282.068 98.9257C279.959 99.1132 275.749 98.9257 275.749 98.9257L279.434 92.519Z" stroke="black" stroke-width="0.666667" stroke-miterlimit="10" stroke-linecap="round" stroke-linejoin="round"/>
<path d="M243.258 54.1444L242.426 54.5213L233.721 58.4749C233.721 58.4749 243.093 57.2815 243.258 65.8005C243.423 74.3194 244.614 110.098 244.614 110.098H267.22C267.22 110.098 275.641 82.8384 276.125 75.1713C276.611 67.5041 269.992 56.6001 269.992 56.6001L260.612 58.4749" fill="#1B1D28"/>
<path d="M243.258 54.1444L242.426 54.5213L233.721 58.4749C233.721 58.4749 243.093 57.2815 243.258 65.8005C243.423 74.3194 244.614 110.098 244.614 110.098H267.22C267.22 110.098 275.641 82.8384 276.125 75.1713C276.611 67.5041 269.992 56.6001 269.992 56.6001L260.612 58.4749" stroke="black" stroke-width="0.666667" stroke-miterlimit="10" stroke-linecap="round" stroke-linejoin="round"/>
<path d="M266.291 40.3517C266.291 40.3517 264.995 46.9373 265.594 49.4316C266.192 51.9268 268.983 57.4146 268.983 57.4146C268.983 57.4146 258.018 59.5097 255.426 59.3101C252.835 59.1105 249.346 50.2301 249.147 49.4316C248.947 48.6332 247.95 30.7727 250.841 27.7793C253.732 24.7859 256.922 24.3867 256.922 24.3867L266.291 40.3517Z" fill="#FFC6C2"/>
<path d="M266.291 40.3517C266.291 40.3517 264.995 46.9373 265.594 49.4316C266.192 51.9268 268.983 57.4146 268.983 57.4146C268.983 57.4146 258.018 59.5097 255.426 59.3101C252.835 59.1105 249.346 50.2301 249.147 49.4316C248.947 48.6332 247.95 30.7727 250.841 27.7793C253.732 24.7859 256.922 24.3867 256.922 24.3867L266.291 40.3517Z" stroke="black" stroke-width="0.666667" stroke-miterlimit="10" stroke-linecap="round" stroke-linejoin="round"/>
<path d="M252.037 24.1874C253.034 20.8946 258.417 15.1074 267.042 14.5086C275.667 13.9097 278.053 19.7967 278.252 25.5847C278.451 31.3718 274.066 40.95 267.686 41.8483C261.307 42.7465 255.825 37.8577 255.825 37.8577" fill="#FFC6C2"/>
<path d="M252.037 24.1874C253.034 20.8946 258.417 15.1074 267.042 14.5086C275.667 13.9097 278.053 19.7967 278.252 25.5847C278.451 31.3718 274.066 40.95 267.686 41.8483C261.307 42.7465 255.825 37.8577 255.825 37.8577" stroke="black" stroke-width="0.666667" stroke-miterlimit="10" stroke-linecap="round" stroke-linejoin="round"/>
<path d="M253.333 25.4843C253.333 25.4843 250.044 21.2932 247.752 25.4843C245.459 29.6754 249.048 33.3674 251.638 33.068" fill="#FFC6C2"/>
<path d="M253.333 25.4843C253.333 25.4843 250.044 21.2932 247.752 25.4843C245.459 29.6754 249.048 33.3674 251.638 33.068" stroke="black" stroke-width="0.666667" stroke-miterlimit="10" stroke-linecap="round" stroke-linejoin="round"/>
<path d="M277.897 29.1638C277.897 29.1638 279.549 27.7544 279.947 29.1638C280.346 30.5731 278.071 34.5543 276.125 34.2506L277.897 29.1638Z" fill="#FFC6C2"/>
<path d="M277.897 29.1638C277.897 29.1638 279.549 27.7544 279.947 29.1638C280.346 30.5731 278.071 34.5543 276.125 34.2506L277.897 29.1638Z" stroke="black" stroke-width="0.666667" stroke-miterlimit="10" stroke-linecap="round" stroke-linejoin="round"/>
<path d="M268.591 28.5373L269.992 32.4866L268.591 31.0841" fill="#FA7D64"/>
<path d="M268.591 28.5373L269.992 32.4866L268.591 31.0841" stroke="black" stroke-width="0.666667" stroke-miterlimit="10" stroke-linecap="round" stroke-linejoin="round"/>
<path d="M256.405 38.3262C256.405 38.3262 261.967 42.4416 267.22 41.8556C267.22 41.8556 265.574 44.7062 265.508 45.9908C265.442 47.2762 265.437 47.8045 265.437 47.8045C265.437 47.8045 257.108 43.0086 256.405 38.3262Z" fill="black"/>
<path d="M256.405 38.3262C256.405 38.3262 261.967 42.4416 267.22 41.8556C267.22 41.8556 265.574 44.7062 265.508 45.9908C265.442 47.2762 265.437 47.8045 265.437 47.8045C265.437 47.8045 257.108 43.0086 256.405 38.3262Z" stroke="black" stroke-width="0.666667" stroke-miterlimit="10" stroke-linecap="round" stroke-linejoin="round"/>
<path d="M265.772 26.4216C265.772 26.7667 265.494 27.0463 265.148 27.0463C264.803 27.0463 264.524 26.7667 264.524 26.4216C264.524 26.0766 264.803 25.797 265.148 25.797C265.494 25.797 265.772 26.0766 265.772 26.4216Z" fill="black"/>
<path d="M265.772 26.4216C265.772 26.7667 265.494 27.0463 265.148 27.0463C264.803 27.0463 264.524 26.7667 264.524 26.4216C264.524 26.0766 264.803 25.797 265.148 25.797C265.494 25.797 265.772 26.0766 265.772 26.4216Z" stroke="black" stroke-width="0.556" stroke-miterlimit="10" stroke-linecap="round" stroke-linejoin="round"/>
<path d="M272.786 26.8401C272.786 27.1851 272.506 27.4647 272.162 27.4647C271.817 27.4647 271.538 27.1851 271.538 26.8401C271.538 26.495 271.817 26.2154 272.162 26.2154C272.506 26.2154 272.786 26.495 272.786 26.8401Z" fill="black"/>
<path d="M272.786 26.8401C272.786 27.1851 272.506 27.4647 272.162 27.4647C271.817 27.4647 271.538 27.1851 271.538 26.8401C271.538 26.495 271.817 26.2154 272.162 26.2154C272.506 26.2154 272.786 26.495 272.786 26.8401Z" stroke="black" stroke-width="0.556" stroke-miterlimit="10" stroke-linecap="round" stroke-linejoin="round"/>
<path d="M265.772 29.6485C265.772 30.521 265.066 31.2274 264.196 31.2274C263.324 31.2274 262.618 30.521 262.618 29.6485C262.618 28.7769 263.324 28.0705 264.196 28.0705C265.066 28.0705 265.772 28.7769 265.772 29.6485Z" fill="#FA7D64"/>
<path d="M273.994 30.512C273.994 31.3836 273.289 32.09 272.417 32.09C271.546 32.09 270.841 31.3836 270.841 30.512C270.841 29.6395 271.546 28.9331 272.417 28.9331C273.289 28.9331 273.994 29.6395 273.994 30.512Z" fill="#FA7D64"/>
<path d="M264.524 32.0903C264.524 32.0903 265.99 35.0192 269.292 34.9606L264.524 32.0903Z" fill="#FFC6C2"/>
<path d="M264.524 32.0903C264.524 32.0903 265.99 35.0192 269.292 34.9606" stroke="black" stroke-width="0.666667" stroke-miterlimit="10" stroke-linecap="round" stroke-linejoin="round"/>
<path d="M250.966 23.7421C250.966 23.7421 254.428 26.5083 259.444 25.7967C264.459 25.0852 269.27 22.1942 271.538 19.9881C273.806 17.782 274.398 16.2805 274.398 16.2805C274.398 16.2805 267.043 11.7728 260.811 13.8266C254.58 15.8804 250.249 20.9775 249.717 21.9662C249.185 22.9548 249.109 23.6216 249.109 23.6216L250.966 23.7421Z" fill="#F8E9F5"/>
<path d="M250.966 23.7421C250.966 23.7421 254.428 26.5083 259.444 25.7967C264.459 25.0852 269.27 22.1942 271.538 19.9881C273.806 17.782 274.398 16.2805 274.398 16.2805C274.398 16.2805 267.043 11.7728 260.811 13.8266C254.58 15.8804 250.249 20.9775 249.717 21.9662C249.185 22.9548 249.109 23.6216 249.109 23.6216L250.966 23.7421Z" stroke="black" stroke-width="0.666667" stroke-miterlimit="10" stroke-linecap="round" stroke-linejoin="round"/>
<path d="M251.008 33.0848C251.008 33.0848 253.44 36.9523 257.62 40.2993C261.799 43.6464 262.939 51.8625 263.091 56.883C263.243 61.9035 263.677 71.6408 258.901 72.4772C254.124 73.3143 253.142 67.9135 252.037 64.5656C250.933 61.2186 245.005 57.2633 243.257 54.1443C241.51 51.0253 241.205 50.3404 242.422 46.8411C243.638 43.3418 247.6 30.5121 247.6 30.5121C247.6 30.5121 247.893 32.5651 251.008 33.0848Z" fill="#F8E9F5"/>
<path d="M251.008 33.0848C251.008 33.0848 253.44 36.9523 257.62 40.2993C261.799 43.6464 262.939 51.8625 263.091 56.883C263.243 61.9035 263.677 71.6408 258.901 72.4772C254.124 73.3143 253.142 67.9135 252.037 64.5656C250.933 61.2186 245.005 57.2633 243.257 54.1443C241.51 51.0253 241.205 50.3404 242.422 46.8411C243.638 43.3418 247.6 30.5121 247.6 30.5121C247.6 30.5121 247.893 32.5651 251.008 33.0848Z" stroke="black" stroke-width="0.666667" stroke-miterlimit="10" stroke-linecap="round" stroke-linejoin="round"/>
<path d="M269.991 41.1235C269.991 41.1235 269.409 46.4382 270.841 49.0324C272.272 51.6274 281.243 56.7159 281.741 60.5078C282.24 64.2996 282.24 67.3928 281.243 67.891C280.246 68.39 273.395 62.2036 271.538 59.8091C269.68 57.4146 269.382 58.9134 267.587 54.5219C265.794 50.1303 264.783 47.4062 265.635 45.324C266.486 43.2409 267.22 41.8557 267.22 41.8557L269.991 41.1235Z" fill="#F8E9F5"/>
<path d="M269.991 41.1235C269.991 41.1235 269.409 46.4382 270.841 49.0324C272.272 51.6274 281.243 56.7159 281.741 60.5078C282.24 64.2996 282.24 67.3928 281.243 67.891C280.246 68.39 273.395 62.2036 271.538 59.8091C269.68 57.4146 269.382 58.9134 267.587 54.5219C265.794 50.1303 264.783 47.4062 265.635 45.324C266.486 43.2409 267.22 41.8557 267.22 41.8557L269.991 41.1235Z" stroke="black" stroke-width="0.666667" stroke-miterlimit="10" stroke-linecap="round" stroke-linejoin="round"/>
<path d="M233.721 58.4746C233.721 58.4746 243.148 56.5412 243.881 65.5911C244.614 74.6401 244.146 95.8037 244.146 95.8037L270.841 92.7389C270.841 92.7389 277.945 88.8172 278.51 88.8688C279.075 88.9195 281.54 89.6397 281.54 89.6397L279.435 92.5187C279.435 92.5187 282.517 93.3412 282.773 93.2896C283.03 93.2388 286.061 92.6735 286.163 92.8783C286.266 93.0848 285.597 94.0098 284.982 94.5243C284.366 95.038 279.485 97.3525 279.075 97.6605C278.664 97.9685 267.279 99.6223 266.694 99.9139C266.111 100.206 244.996 113.453 239.353 113.453C233.709 113.453 230.109 108.486 229.817 102.057C229.524 95.6282 229.817 64.9458 229.817 64.9458C229.817 64.9458 231.247 59.5983 233.721 58.4746Z" fill="#FFC6C2"/>
<path d="M233.721 58.4746C233.721 58.4746 243.148 56.5412 243.881 65.5911C244.614 74.6401 244.146 95.8037 244.146 95.8037L270.841 92.7389C270.841 92.7389 277.945 88.8172 278.51 88.8688C279.075 88.9195 281.54 89.6397 281.54 89.6397L279.435 92.5187C279.435 92.5187 282.517 93.3412 282.773 93.2896C283.03 93.2388 286.061 92.6735 286.163 92.8783C286.266 93.0848 285.597 94.0098 284.982 94.5243C284.366 95.038 279.485 97.3525 279.075 97.6605C278.664 97.9685 267.279 99.6223 266.694 99.9139C266.111 100.206 244.996 113.453 239.353 113.453C233.709 113.453 230.109 108.486 229.817 102.057C229.524 95.6282 229.817 64.9458 229.817 64.9458C229.817 64.9458 231.247 59.5983 233.721 58.4746Z" stroke="black" stroke-width="0.666667" stroke-miterlimit="10" stroke-linecap="round" stroke-linejoin="round"/>
<path d="M244.146 95.8034C244.146 95.8034 238.282 96.4075 235.557 99.4267L244.146 95.8034Z" fill="#FFC6C2"/>
<path d="M244.146 95.8034C244.146 95.8034 238.282 96.4075 235.557 99.4267" stroke="black" stroke-width="0.666667" stroke-miterlimit="10" stroke-linecap="round" stroke-linejoin="round"/>
<path d="M253.333 25.0398C253.333 25.0398 253.748 28.2371 254.936 28.213C256.124 28.1881 258.901 25.914 258.901 25.914L253.333 25.0398Z" fill="#F8E9F5"/>
<path d="M253.333 25.0398C253.333 25.0398 253.748 28.2371 254.936 28.213C256.124 28.1881 258.901 25.914 258.901 25.914L253.333 25.0398Z" stroke="black" stroke-width="0.666667" stroke-miterlimit="10" stroke-linecap="round" stroke-linejoin="round"/>
<path d="M266.876 110.098C266.876 110.098 270.422 115.864 270.761 115.948C271.098 116.032 279.886 110.369 282.247 108.002C284.609 105.635 291.219 95.8033 291.219 95.8033C291.219 95.8033 289.085 88.0526 288.831 87.9683C288.578 87.884 287.649 88.9828 287.649 89.4895C287.649 89.9972 287.564 91.9409 287.564 91.9409C287.564 91.9409 283.879 99.0599 283.483 99.0083C283.089 98.9575 281.571 99.0281 281.231 99.0083C280.892 98.9885 275.749 98.9257 275.749 98.9257L276.152 98.2253L270.446 99.2062L266.876 110.098Z" fill="#FFC6C2"/>
<path d="M266.876 110.098C266.876 110.098 270.422 115.864 270.761 115.948C271.098 116.032 279.886 110.369 282.247 108.002C284.609 105.635 291.219 95.8033 291.219 95.8033C291.219 95.8033 289.085 88.0526 288.831 87.9683C288.578 87.884 287.649 88.9828 287.649 89.4895C287.649 89.9972 287.564 91.9409 287.564 91.9409C287.564 91.9409 283.879 99.0599 283.483 99.0083C283.089 98.9575 281.571 99.0281 281.231 99.0083C280.892 98.9885 275.749 98.9257 275.749 98.9257L276.152 98.2253L270.446 99.2062L266.876 110.098Z" stroke="black" stroke-width="0.666667" stroke-miterlimit="10" stroke-linecap="round" stroke-linejoin="round"/>
<path d="M250.176 34.9619C250.176 34.9619 252.692 40.959 253.333 46.3916C253.974 51.8243 253.974 55.2496 253.974 55.2496" fill="#F8E9F5"/>
<path d="M250.176 34.9619C250.176 34.9619 252.692 40.959 253.333 46.3916C253.974 51.8243 253.974 55.2496 253.974 55.2496" stroke="black" stroke-width="0.666667" stroke-miterlimit="10" stroke-linecap="round" stroke-linejoin="round"/>
<path d="M258.458 54.1443C258.458 54.1443 259.991 59.3834 260.227 62.4542L258.458 54.1443Z" fill="#F8E9F5"/>
<path d="M258.458 54.1443C258.458 54.1443 259.991 59.3834 260.227 62.4542" stroke="black" stroke-width="0.666667" stroke-miterlimit="10" stroke-linecap="round" stroke-linejoin="round"/>
<path d="M254.936 22.5338C254.936 22.5338 260.562 22.1793 264.523 20.4077L254.936 22.5338Z" fill="#F8E9F5"/>
<path d="M254.936 22.5338C254.936 22.5338 260.562 22.1793 264.523 20.4077" stroke="black" stroke-width="0.666667" stroke-miterlimit="10" stroke-linecap="round" stroke-linejoin="round"/>
<path d="M270.457 14.4665C270.457 14.4665 265.183 18.1637 263.649 18.3994L270.457 14.4665Z" fill="#F8E9F5"/>
<path d="M270.457 14.4665C270.457 14.4665 265.183 18.1637 263.649 18.3994" stroke="black" stroke-width="0.666667" stroke-miterlimit="10" stroke-linecap="round" stroke-linejoin="round"/>
<path d="M273.481 245.187L285.773 241.293L273.481 245.187Z" fill="#F8E9F5"/>
<path d="M273.481 245.187L285.773 241.293" stroke="black" stroke-width="0.666667" stroke-miterlimit="10" stroke-linecap="round" stroke-linejoin="round"/>
<path d="M239.003 242.329H251.38H239.003Z" fill="#F8E9F5"/>
<path d="M239.003 242.329H251.38" stroke="black" stroke-width="0.666667" stroke-miterlimit="10" stroke-linecap="round" stroke-linejoin="round"/>
<path d="M238.268 257.336L233.147 282.341H262.218C262.218 282.341 262.376 279.653 260.638 278.388C258.9 277.122 245.544 270.621 245.192 269.839C244.839 269.057 247.028 255.259 247.028 255.259L238.268 257.336Z" fill="#1B1D28"/>
<path d="M238.268 257.336L233.147 282.341H262.218C262.218 282.341 262.376 279.653 260.638 278.388C258.9 277.122 245.544 270.621 245.192 269.839C244.839 269.057 247.028 255.259 247.028 255.259L238.268 257.336Z" stroke="black" stroke-width="0.666667" stroke-miterlimit="10" stroke-linecap="round" stroke-linejoin="round"/>
<path d="M279.047 257.336C279.047 257.336 279.09 257.506 279.163 257.808C279.728 260.129 282.185 270.253 282.283 271.323C282.393 272.533 283.381 279.351 283.381 279.351L315.896 278.361C315.896 278.361 314.687 274.072 313.48 273.632C312.27 273.193 301.616 269.102 300.297 268.343C298.979 267.584 288.527 253.413 288.527 253.413L279.047 257.336Z" fill="#1B1D28"/>
<path d="M279.047 257.336C279.047 257.336 279.09 257.506 279.163 257.808C279.728 260.129 282.185 270.253 282.283 271.323C282.393 272.533 283.381 279.351 283.381 279.351L315.896 278.361C315.896 278.361 314.687 274.072 313.48 273.632C312.27 273.193 301.616 269.102 300.297 268.343C298.979 267.584 288.527 253.413 288.527 253.413L279.047 257.336Z" stroke="black" stroke-width="0.666667" stroke-miterlimit="10" stroke-linecap="round" stroke-linejoin="round"/>
<path d="M305.401 270.503C305.401 270.503 302.022 272.734 301.193 273.729C300.364 274.725 299.038 278.874 299.038 278.874L315.896 278.361L313.479 273.633L305.401 270.503Z" fill="#FFEEED"/>
<path d="M305.401 270.503C305.401 270.503 302.022 272.734 301.193 273.729C300.364 274.725 299.038 278.874 299.038 278.874L315.896 278.361L313.479 273.633L305.401 270.503Z" stroke="black" stroke-width="0.666667" stroke-miterlimit="10" stroke-linecap="round" stroke-linejoin="round"/>
<path d="M282.961 276.415H299.904L299.038 278.874L283.381 279.35L282.961 276.415Z" fill="#FFEEED"/>
<path d="M282.961 276.415H299.904L299.038 278.874L283.381 279.35L282.961 276.415Z" stroke="black" stroke-width="0.666667" stroke-miterlimit="10" stroke-linecap="round" stroke-linejoin="round"/>
<path d="M253.844 274.688C253.844 274.688 250.651 278.024 249.583 278.874C248.515 279.724 247.684 282.342 247.684 282.342H262.218C262.218 282.342 262.305 278.642 261.472 278.515C260.638 278.388 253.844 274.688 253.844 274.688Z" fill="#FFEEED"/>
<path d="M253.844 274.688C253.844 274.688 250.651 278.024 249.583 278.874C248.515 279.724 247.684 282.342 247.684 282.342H262.218C262.218 282.342 262.305 278.642 261.472 278.515C260.638 278.388 253.844 274.688 253.844 274.688Z" stroke="black" stroke-width="0.666667" stroke-miterlimit="10" stroke-linecap="round" stroke-linejoin="round"/>
</svg>
