<svg width="15" height="15" viewBox="0 0 15 15" fill="none" xmlns="http://www.w3.org/2000/svg">
<path d="M7.50155 3.65331C5.37331 3.65331 3.65666 5.36996 3.65666 7.4982C3.65666 9.62644 5.37331 11.3431 7.50155 11.3431C9.62979 11.3431 11.3464 9.62644 11.3464 7.4982C11.3464 5.36996 9.62979 3.65331 7.50155 3.65331ZM7.50155 9.99788C6.12622 9.99788 5.00187 8.87687 5.00187 7.4982C5.00187 6.11953 6.12288 4.99852 7.50155 4.99852C8.88022 4.99852 10.0012 6.11953 10.0012 7.4982C10.0012 8.87687 8.87687 9.99788 7.50155 9.99788ZM12.4005 3.49604C12.4005 3.99463 11.999 4.39284 11.5037 4.39284C11.0051 4.39284 10.6069 3.99129 10.6069 3.49604C10.6069 3.00079 11.0085 2.59923 11.5037 2.59923C11.999 2.59923 12.4005 3.00079 12.4005 3.49604ZM14.947 4.40623C14.8902 3.20491 14.6158 2.14079 13.7357 1.26406C12.859 0.387333 11.7948 0.112937 10.5935 0.0527041C9.35539 -0.017568 5.64436 -0.017568 4.40623 0.0527041C3.20826 0.109591 2.14414 0.383987 1.26406 1.26072C0.383987 2.13744 0.112937 3.20156 0.0527041 4.40288C-0.017568 5.64101 -0.017568 9.35205 0.0527041 10.5902C0.109591 11.7915 0.383987 12.8556 1.26406 13.7323C2.14414 14.6091 3.20491 14.8835 4.40623 14.9437C5.64436 15.014 9.35539 15.014 10.5935 14.9437C11.7948 14.8868 12.859 14.6124 13.7357 13.7323C14.6124 12.8556 14.8868 11.7915 14.947 10.5902C15.0173 9.35205 15.0173 5.64436 14.947 4.40623ZM13.3475 11.9187C13.0865 12.5745 12.5812 13.0798 11.922 13.3442C10.9348 13.7357 8.59244 13.6453 7.50155 13.6453C6.41066 13.6453 4.06491 13.7323 3.0811 13.3442C2.42522 13.0832 1.91993 12.5779 1.65558 11.9187C1.26406 10.9315 1.35441 8.58909 1.35441 7.4982C1.35441 6.40731 1.26741 4.06156 1.65558 3.07775C1.91659 2.42188 2.42188 1.91659 3.0811 1.65223C4.06825 1.26072 6.41066 1.35106 7.50155 1.35106C8.59244 1.35106 10.9382 1.26406 11.922 1.65223C12.5779 1.91324 13.0832 2.41853 13.3475 3.07775C13.739 4.06491 13.6487 6.40731 13.6487 7.4982C13.6487 8.58909 13.739 10.9348 13.3475 11.9187Z" fill="black"/>
</svg>
