<svg width="16" height="13" viewBox="0 0 16 13" fill="none" xmlns="http://www.w3.org/2000/svg">
<path d="M14.3552 3.23854C14.3654 3.38066 14.3654 3.52282 14.3654 3.66494C14.3654 7.99991 11.0659 12.9948 5.03549 12.9948C3.17763 12.9948 1.45177 12.4567 0 11.5228C0.263967 11.5532 0.517746 11.5633 0.791869 11.5633C2.32483 11.5633 3.736 11.0456 4.8629 10.1624C3.42129 10.1319 2.21317 9.18774 1.79692 7.88825C1.99998 7.91869 2.20301 7.939 2.41623 7.939C2.71064 7.939 3.00507 7.89838 3.27916 7.82734C1.77664 7.52275 0.649714 6.20298 0.649714 4.60909V4.5685C1.08624 4.81215 1.59389 4.96443 2.13192 4.98471C1.24868 4.39587 0.670026 3.39082 0.670026 2.25376C0.670026 1.64464 0.832431 1.08627 1.11671 0.598964C2.73092 2.58879 5.1573 3.88825 7.87806 4.03041C7.82731 3.78675 7.79685 3.53297 7.79685 3.27916C7.79685 1.47205 9.25877 0 11.076 0C12.0202 0 12.8729 0.395934 13.4719 1.03552C14.213 0.893399 14.9237 0.619276 15.5531 0.243654C15.3094 1.00509 14.7917 1.64467 14.1115 2.05073C14.7714 1.9797 15.411 1.79692 15.9998 1.54314C15.5532 2.19286 14.9948 2.77151 14.3552 3.23854Z" fill="black"/>
</svg>
