<svg width="45" height="10" viewBox="0 0 45 10" fill="none" xmlns="http://www.w3.org/2000/svg">
<path d="M0.121707 8.94876C1.32982 7.2174 2.7478 5.60358 4.40966 4.23681C5.23587 3.54745 6.13011 2.93776 7.07165 2.40181C8.01507 1.87184 9.00767 1.42157 10.0343 1.06494C11.0609 0.706315 12.1177 0.437353 13.1897 0.256047C14.2617 0.0847034 15.3431 0.00897789 16.4208 0.00100899C17.5003 -0.00895309 18.578 0.0548258 19.6387 0.194291C20.7012 0.32778 21.7543 0.515063 22.7884 0.762116C23.8245 1.00319 24.8492 1.27614 25.8494 1.62082C26.8533 1.95952 27.7778 2.48948 28.7004 2.99754C30.3188 3.92 32.0052 4.67912 33.7579 5.11346C35.5029 5.53385 37.3122 5.66731 39.0724 5.28876C39.9496 5.09949 40.8137 4.79864 41.6323 4.37227C42.0388 4.1551 42.4358 3.91004 42.8121 3.6351C43.0011 3.49762 43.1845 3.3522 43.3622 3.20078C43.4492 3.12507 43.5362 3.04735 43.6194 2.96765L43.7404 2.85009C43.7782 2.81224 43.8217 2.76445 43.8443 2.74452L43.9313 2.66284C44.2017 2.41778 44.6082 2.44767 44.8426 2.73258C45.0355 2.96568 45.0487 3.30037 44.8955 3.54742C44.8426 3.6331 44.8105 3.68492 44.767 3.75067L44.646 3.92998C44.5628 4.04554 44.4796 4.1591 44.3926 4.26868C44.2206 4.48984 44.0391 4.70302 43.85 4.90624C43.4719 5.31269 43.0635 5.68723 42.6325 6.0359C42.2014 6.38456 41.7401 6.69339 41.2655 6.98029C40.7891 7.26121 40.29 7.50427 39.7776 7.71945C37.7263 8.57418 35.467 8.8571 33.2795 8.70369C31.0864 8.55028 28.9557 7.99838 26.927 7.26121C26.0214 6.94442 25.1101 6.6635 24.2385 6.30288C23.8037 6.11162 23.3689 5.93628 22.934 5.74701C22.4954 5.57965 22.0605 5.39636 21.6181 5.24693C20.7371 4.92417 19.8447 4.6572 18.9486 4.43605C18.4986 4.32049 18.0486 4.23084 17.5968 4.1372C17.1449 4.05949 16.6912 3.97781 16.2374 3.928C14.4224 3.70884 12.5904 3.73869 10.7981 4.09532C7.19453 4.7807 3.84624 6.93247 1.06702 9.80945L1.06514 9.81144C0.819355 10.0665 0.422309 10.0625 0.180309 9.80147C-0.0390041 9.56837 -0.057903 9.20578 0.121707 8.94876Z" fill="#DAF5FE"/>
</svg>
