<svg width="25" height="24" viewBox="0 0 25 24" fill="none" xmlns="http://www.w3.org/2000/svg">
<path d="M2.70281 2C1.21009 2 0 3.21009 0 4.70281V7.70594C0 9.19866 1.21009 10.4087 2.70281 10.4087H5.70594C7.19866 10.4087 8.40875 9.19866 8.40875 7.70594V4.70281C8.40875 3.21009 7.19866 2 5.70594 2H2.70281ZM11.1116 3.20125C10.614 3.20125 10.2106 3.60462 10.2106 4.10219C10.2106 4.59976 10.614 5.00312 11.1116 5.00312H23.1241C23.6216 5.00312 24.025 4.59976 24.025 4.10219C24.025 3.60462 23.6216 3.20125 23.1241 3.20125H11.1116ZM11.1116 6.805C10.614 6.805 10.2106 7.20837 10.2106 7.70594C10.2106 8.20351 10.614 8.60687 11.1116 8.60687H19.5203C20.0179 8.60687 20.4212 8.20351 20.4212 7.70594C20.4212 7.20837 20.0179 6.805 19.5203 6.805H11.1116ZM2.70281 12.8112C1.21009 12.8112 0 14.0214 0 15.5141V18.5172C0 20.0099 1.21009 21.22 2.70281 21.22H5.70594C7.19866 21.22 8.40875 20.0099 8.40875 18.5172V15.5141C8.40875 14.0214 7.19866 12.8112 5.70594 12.8112H2.70281ZM11.1116 14.0125C10.614 14.0125 10.2106 14.4159 10.2106 14.9134C10.2106 15.411 10.614 15.8144 11.1116 15.8144H23.1241C23.6216 15.8144 24.025 15.411 24.025 14.9134C24.025 14.4159 23.6216 14.0125 23.1241 14.0125H11.1116ZM11.1116 17.6162C10.614 17.6162 10.2106 18.0196 10.2106 18.5172C10.2106 19.0147 10.614 19.4181 11.1116 19.4181H19.5203C20.0179 19.4181 20.4212 19.0147 20.4212 18.5172C20.4212 18.0196 20.0179 17.6162 19.5203 17.6162H11.1116Z" fill="#B9BCBE"/>
</svg>
