<svg width="24" height="24" viewBox="0 0 24 24" fill="none" xmlns="http://www.w3.org/2000/svg">
<path d="M10.4 2H14C14.7837 2 15.4504 2.50088 15.6975 3.2H17.6C18.5941 3.2 19.4 4.00588 19.4 5V19.4C19.4 20.3941 18.5941 21.2 17.6 21.2H6.8C5.80588 21.2 5 20.3941 5 19.4V5C5 4.00588 5.80588 3.2 6.8 3.2H8.70242C8.94952 2.50088 9.61627 2 10.4 2ZM9.8 3.8C9.8 4.13137 10.0686 4.4 10.4 4.4H14C14.3313 4.4 14.6 4.13137 14.6 3.8C14.6 3.46863 14.3313 3.2 14 3.2H10.4C10.0686 3.2 9.8 3.46863 9.8 3.8ZM15.5 10.7C15.997 10.7 16.4 10.2971 16.4 9.8C16.4 9.30295 15.997 8.9 15.5 8.9C15.003 8.9 14.6 9.30295 14.6 9.8C14.6 10.2971 15.003 10.7 15.5 10.7ZM15.5 14.3C15.997 14.3 16.4 13.897 16.4 13.4C16.4 12.903 15.997 12.5 15.5 12.5C15.003 12.5 14.6 12.903 14.6 13.4C14.6 13.897 15.003 14.3 15.5 14.3ZM14.6 17C14.6 17.497 15.003 17.9 15.5 17.9C15.997 17.9 16.4 17.497 16.4 17C16.4 16.503 15.997 16.1 15.5 16.1C15.003 16.1 14.6 16.503 14.6 17ZM13.4 9.8C13.4 9.46863 13.1313 9.2 12.8 9.2H8.6C8.26863 9.2 8 9.46863 8 9.8C8 10.1314 8.26863 10.4 8.6 10.4H12.8C13.1313 10.4 13.4 10.1314 13.4 9.8ZM13.4 13.4C13.4 13.0687 13.1313 12.8 12.8 12.8H8.6C8.26863 12.8 8 13.0687 8 13.4C8 13.7313 8.26863 14 8.6 14H12.8C13.1313 14 13.4 13.7313 13.4 13.4ZM13.4 17C13.4 16.6687 13.1313 16.4 12.8 16.4H8.6C8.26863 16.4 8 16.6687 8 17C8 17.3313 8.26863 17.6 8.6 17.6H12.8C13.1313 17.6 13.4 17.3313 13.4 17Z" fill="#0B1854"/>
</svg>
