<svg width="17" height="11" viewBox="0 0 17 11" fill="none" xmlns="http://www.w3.org/2000/svg">
<path d="M11.8282 0.230119L16.5375 4.93907C16.8162 5.21785 16.8418 5.65399 16.614 5.96158L16.5381 6.04969L11.8288 10.7693C11.5223 11.0765 11.0248 11.077 10.7176 10.7704C10.4383 10.4918 10.4125 10.0553 10.6404 9.7475L10.7164 9.65929L14.0865 6.2828L0.785723 6.28353C0.387928 6.28353 0.0591731 5.98788 0.00710476 5.60433L-1.8983e-05 5.49779C-1.8983e-05 5.09999 0.295524 4.77124 0.679071 4.71917L0.785723 4.71204L14.0886 4.71131L10.717 1.34137C10.4381 1.06242 10.4126 0.625902 10.6409 0.31829L10.717 0.230161C10.9959 -0.0488094 11.4324 -0.0741836 11.7401 0.154048L11.8282 0.230119Z" fill="#EB3B34"/>
</svg>
