<svg width="15" height="15" viewBox="0 0 15 15" fill="none" xmlns="http://www.w3.org/2000/svg">
<path d="M3.35764 14.9999H0.247772V4.98523H3.35764V14.9999ZM1.80103 3.61914C0.806597 3.61914 0 2.79547 0 1.80103C7.11774e-09 1.32337 0.189751 0.865269 0.52751 0.52751C0.865269 0.189751 1.32337 0 1.80103 0C2.27869 0 2.73679 0.189751 3.07455 0.52751C3.41231 0.865269 3.60206 1.32337 3.60206 1.80103C3.60206 2.79547 2.79513 3.61914 1.80103 3.61914ZM14.9969 14.9999H11.8937V10.1248C11.8937 8.96297 11.8703 7.473 10.2768 7.473C8.65995 7.473 8.41218 8.73529 8.41218 10.0411V14.9999H5.30566V4.98523H8.28829V6.35133H8.33182C8.74701 5.56448 9.7612 4.73411 11.2743 4.73411C14.4216 4.73411 15.0002 6.80669 15.0002 9.4987V14.9999H14.9969Z" fill="black"/>
</svg>
