<svg width="52" height="11" viewBox="0 0 52 11" fill="none" xmlns="http://www.w3.org/2000/svg">
<path d="M0.113857 10.0336C1.45596 8.16736 3.04065 6.42053 4.91294 4.92563C5.84615 4.17352 6.85763 3.49978 7.92387 2.90071C8.99599 2.30909 10.1248 1.80143 11.2967 1.38712C12.4667 0.9728 13.6777 0.651813 14.9083 0.422259C16.1389 0.200171 17.3851 0.0788765 18.6313 0.0266199C19.8776 -0.0256357 21.1238 -0.00138092 22.3564 0.103131C23.5889 0.200178 24.8156 0.355073 26.0207 0.571562C26.6292 0.66861 27.222 0.801108 27.8245 0.918685C28.4154 1.05866 29.018 1.17996 29.599 1.34979C30.7768 1.66333 31.8763 2.16537 32.9719 2.645C34.9283 3.53149 36.9571 4.24069 39.0465 4.60089C41.1282 4.94802 43.2704 4.97788 45.3247 4.47025C46.3459 4.2127 47.3456 3.84129 48.2808 3.33553C48.7464 3.08171 49.1984 2.79806 49.6249 2.48079C49.8381 2.32402 50.0435 2.15792 50.2431 1.98622C50.3429 1.90038 50.4387 1.81076 50.5327 1.72305L50.6676 1.58869L50.785 1.46552L50.8359 1.41325C51.0863 1.15384 51.5109 1.13704 51.7848 1.37593C52.0215 1.58495 52.0645 1.9209 51.906 2.17471C51.8493 2.26429 51.8122 2.32028 51.7652 2.38934L51.6321 2.57968C51.5402 2.70286 51.4482 2.82603 51.3524 2.94361C51.1607 3.18063 50.9592 3.4102 50.7479 3.62856C50.3253 4.06714 49.8675 4.47398 49.3823 4.85284C48.8971 5.23169 48.3767 5.57136 47.8406 5.88863C47.2987 6.2003 46.7333 6.47089 46.1522 6.71537C43.8182 7.68211 41.226 8.05912 38.6983 7.98073C36.1647 7.90235 33.6859 7.40593 31.3148 6.70794C30.7768 6.56237 30.2427 6.4037 29.7066 6.26746C29.4405 6.19654 29.1745 6.12004 28.9123 6.03979C28.6462 5.96327 28.386 5.88302 28.1239 5.79717C27.6054 5.61614 27.085 5.45377 26.5646 5.27647C26.0422 5.12344 25.5199 4.95174 24.9936 4.81737C23.943 4.52436 22.8807 4.28734 21.8144 4.10071C21.2803 4.00179 20.7462 3.93275 20.2102 3.85623C19.6741 3.80024 19.1381 3.73677 18.6 3.71065C16.4538 3.57627 14.2979 3.71252 12.2084 4.19402C11.1637 4.43477 10.1366 4.75952 9.1388 5.17011C8.14103 5.58069 7.18044 6.0883 6.24527 6.65005C5.31597 7.21554 4.41407 7.84636 3.56498 8.54995C2.71785 9.25354 1.90398 10.0056 1.12533 10.8007L1.11946 10.8044C0.874911 11.0545 0.466023 11.0657 0.203864 10.8324C-0.0328626 10.6215 -0.0641767 10.28 0.113857 10.0336Z" fill="#DAF5FE"/>
</svg>
