<svg width="18" height="18" viewBox="0 0 18 18" fill="none" xmlns="http://www.w3.org/2000/svg">
<g clip-path="url(#clip0_77_5874)">
<path d="M14.3551 9.70505C14.3851 9.48005 14.4001 9.24755 14.4001 9.00005C14.4001 8.76005 14.3851 8.52005 14.3476 8.29505L15.8701 7.11005C16.0051 7.00505 16.0426 6.80255 15.9601 6.65255L14.5201 4.16255C14.4301 3.99755 14.2426 3.94505 14.0776 3.99755L12.2851 4.71755C11.9101 4.43255 11.5126 4.19255 11.0701 4.01255L10.8001 2.10755C10.7701 1.92755 10.6201 1.80005 10.4401 1.80005H7.56008C7.38008 1.80005 7.23758 1.92755 7.20758 2.10755L6.93758 4.01255C6.49508 4.19255 6.09008 4.44005 5.72258 4.71755L3.93008 3.99755C3.76508 3.93755 3.57758 3.99755 3.48758 4.16255L2.05508 6.65255C1.96508 6.81005 1.99508 7.00505 2.14508 7.11005L3.66758 8.29505C3.63008 8.52005 3.60008 8.76755 3.60008 9.00005C3.60008 9.23255 3.61508 9.48005 3.65258 9.70505L2.13008 10.89C1.99508 10.995 1.95758 11.1975 2.04008 11.3475L3.48008 13.8375C3.57008 14.0026 3.75758 14.055 3.92258 14.0025L5.71508 13.2825C6.09008 13.5675 6.48758 13.8075 6.93008 13.9875L7.20008 15.8925C7.23758 16.0725 7.38008 16.2 7.56008 16.2H10.4401C10.6201 16.2 10.7701 16.0725 10.7926 15.8925L11.0626 13.9875C11.5051 13.8075 11.9101 13.5675 12.2776 13.2825L14.0701 14.0025C14.2351 14.0625 14.4226 14.0026 14.5126 13.8375L15.9526 11.3475C16.0426 11.1825 16.0051 10.995 15.8626 10.89L14.3551 9.70505ZM9.00008 11.7C7.51508 11.7 6.30008 10.485 6.30008 9.00005C6.30008 7.51505 7.51508 6.30005 9.00008 6.30005C10.4851 6.30005 11.7001 7.51505 11.7001 9.00005C11.7001 10.485 10.4851 11.7 9.00008 11.7Z" fill="#0B1854"/>
</g>
<defs>
<clipPath id="clip0_77_5874">
<rect width="18" height="18" fill="white"/>
</clipPath>
</defs>
</svg>
