<svg width="16" height="14" viewBox="0 0 16 14" fill="none" xmlns="http://www.w3.org/2000/svg">
<path d="M12.7701 9.06914C14.1403 9.00184 15.1167 8.16534 15.1167 6.80651C15.1167 5.38853 14.0535 4.53943 12.5892 4.53943H8.38985L8.46995 4.27825C8.82039 3.07806 8.84034 2.13778 8.48678 1.43061C8.00646 0.469939 7.14457 -0.0238787 6.02756 0.0008878C5.74695 0.00711468 5.49284 0.168439 5.3678 0.419812L4.18338 2.80065L4.13068 2.89879L4.07184 2.99339L2.80641 4.89141L2.66666 5.08626C2.32559 5.52869 1.88256 5.88386 1.37393 6.12044L1.31095 6.14976L1.15498 6.22966C0.344979 6.68519 -0.110652 7.59565 0.023055 8.52726L0.372688 10.9639L0.402916 11.1304C0.58408 11.9526 1.20919 12.6124 2.03158 12.8321L5.98444 13.8882L6.1653 13.9312C7.85391 14.2826 9.54273 13.2568 9.99342 11.5698C10.0164 11.4838 10.0358 11.3971 10.0517 11.3096L10.4577 9.07358H12.5892L12.7701 9.06914ZM12.7324 6.05475C13.3283 6.0887 13.6054 6.34302 13.6054 6.80651C13.6054 7.30557 13.2841 7.5622 12.5892 7.5622H9.82687L9.71906 7.56986C9.40147 7.6154 9.14211 7.85944 9.08337 8.18287L8.55036 11.1099L8.53323 11.1796C8.28184 12.1205 7.31546 12.6794 6.37458 12.428L2.42171 11.372L2.31572 11.335C2.07762 11.2317 1.90633 11.0114 1.86875 10.7492L1.51912 8.31265L1.51136 8.20322C1.51207 7.91334 1.67973 7.64502 1.94835 7.52008L2.01143 7.49076L2.25748 7.36793C2.98435 6.97991 3.60543 6.41768 4.06398 5.7298L5.32931 3.83175L5.43863 3.65606L5.53657 3.47382L6.49156 1.55411L6.61196 1.59285C6.84179 1.68311 7.00694 1.85058 7.1349 2.10652C7.35526 2.54712 7.21359 3.53535 6.60683 5.00706C6.40168 5.50451 6.76733 6.05082 7.30538 6.05082L12.5892 6.05082L12.7324 6.05475Z" fill="#0B1854"/>
</svg>
