<svg width="307" height="257" viewBox="0 0 307 257" fill="none" xmlns="http://www.w3.org/2000/svg">
<path d="M203.646 233.395C203.646 233.395 141.865 247.767 117.047 222.949L125.927 163.673C128.627 146.633 127.017 113.851 140.064 102.22C142.591 99.9685 145.02 98.8485 145.02 98.8485C154.174 94.4281 170.459 92.0432 186.093 91.9811C205.088 91.9075 224.637 106.27 229.625 124.598L209.067 172.686L203.646 233.395Z" fill="#FF7181"/>
<path d="M197.537 131.983C197.537 131.983 225.213 185.294 211.472 188.132C166.263 197.472 140.022 205.131 140.022 205.131L137.717 222.685C138.393 225.34 229.183 223.044 239.935 210.848C247.527 202.235 257.621 182.332 236.147 139.253L229.625 124.598L197.537 131.983Z" fill="#FFC6C2"/>
<path d="M145.563 104.523L76.629 131.211L74.4717 95.0479L59.7135 89.3397C59.7135 89.3397 38.3132 147.386 65.0768 158.193C91.8403 169.002 121.996 149.03 121.996 149.03L145.563 104.523Z" fill="#FFC6C2"/>
<path d="M154.091 95.6609C130.03 103.326 115.681 112.31 81.8086 126.438L99.2025 165.225L129.184 155.6L154.091 95.6609Z" fill="#FF7181"/>
<path d="M172.759 152.294C181.158 151.827 189.452 152.191 197.844 152.303C198.577 152.312 198.534 151.275 197.844 151.192C189.576 150.203 181.036 150.599 172.759 151.31C172.136 151.365 172.12 152.331 172.759 152.294Z" fill="#002C68"/>
<path d="M210.377 105.176C182.001 107.738 201.41 149.575 208.682 162.24C209.085 162.946 210.175 162.314 209.772 161.603C202.546 148.806 183.204 109.874 210.471 105.868C210.86 105.81 210.773 105.139 210.377 105.176Z" fill="#002C68"/>
<path d="M131.735 129.095C128.241 143.028 125.898 157.517 125.031 171.863C124.994 172.457 125.999 172.606 126.084 172.006C128.115 157.742 130.155 143.518 132.443 129.288C132.517 128.835 131.854 128.626 131.735 129.095Z" fill="#002C68"/>
<path d="M198.15 51.8132C198.582 45.822 199.017 39.8309 199.452 33.8397C204.159 32.515 206.609 26.4893 204.727 21.9724C202.851 17.4555 197.513 14.9187 192.669 15.611C195.726 13.5296 195.491 8.55957 192.982 5.84343C190.475 3.12729 186.542 2.24644 182.849 2.10385C179.153 1.96125 175.411 2.40973 171.777 1.73587C168.557 1.1356 165.402 -0.338608 162.152 0.0707664C158.903 0.482445 155.793 4.13923 157.546 6.90597C152.859 6.21831 147.787 5.59274 143.622 7.85351C139.457 10.1143 137.367 16.547 140.948 19.6518C138.583 20.857 137.99 24.2792 139.319 26.5767C140.649 28.872 143.372 30.0794 146.019 30.2703C148.664 30.4589 151.29 29.7896 153.859 29.125" fill="#050505"/>
<path d="M197.384 40.162L196.439 52.6158C196.439 52.6158 207.028 54.044 204.01 63.7011C200.99 73.3583 193.748 69.1334 193.748 69.1334C193.748 69.1334 191.938 93.8823 166.584 86.0351C146.408 79.7887 147.643 53.6622 150.203 31.388C151.196 22.7589 159.358 16.8252 167.884 18.4858L183.125 21.4549C191.936 23.1706 198.065 31.2132 197.384 40.162Z" fill="#FFC6C2"/>
<path d="M196.438 62.9499L189.608 99.3775C188.069 107.583 179.978 112.834 171.858 110.898C164.328 109.099 159.507 101.749 160.86 94.1292L164.569 73.251L196.438 62.9499Z" fill="#FFC6C2"/>
<path d="M168.398 63.3616C168.437 63.3478 168.513 63.8722 167.768 64.2356C166.99 64.5806 165.748 63.8285 165.426 62.5935C165.012 61.4045 165.077 59.9647 165.141 58.4859C165.224 56.9128 165.309 55.3098 165.399 53.6263C165.831 46.7336 166.448 41.1633 166.779 41.1817C167.108 41.2047 167.025 46.8072 166.595 53.7022C166.473 55.3811 166.356 56.9864 166.243 58.5572C166.112 60.0498 165.99 61.3516 166.238 62.3543C166.422 63.3662 167.161 63.863 167.644 63.7871C168.133 63.7043 168.313 63.2973 168.398 63.3616Z" fill="#050505"/>
<path d="M160.173 83.4928C160.286 83.3411 161.475 84.1667 163.57 85.0982C165.649 86.0342 168.705 86.9909 172.171 87.0622C175.637 87.1358 178.731 86.3102 180.849 85.4615C182.978 84.6198 184.204 83.8447 184.31 84.0011C184.395 84.1138 183.326 85.1533 181.196 86.2366C179.085 87.3198 175.833 88.3387 172.144 88.2605C168.462 88.1846 165.253 87.0277 163.19 85.8571C161.104 84.6842 160.081 83.6009 160.173 83.4928Z" fill="#050505"/>
<path d="M165.125 68.4727C165.266 68.3508 165.825 68.8913 166.889 69.3627C167.929 69.8411 169.576 70.193 171.202 69.6755C172.823 69.1465 173.957 67.9023 174.523 66.9088C175.114 65.9037 175.252 65.1402 175.436 65.1586C175.578 65.1563 175.755 66.0003 175.289 67.2699C174.849 68.5072 173.607 70.147 171.567 70.8162C169.518 71.4625 167.556 70.853 166.475 70.1033C165.36 69.342 165.008 68.5532 165.125 68.4727Z" fill="#050505"/>
<path d="M197.236 64.9092C197.22 64.7275 197.852 64.6378 198.556 64.2054C198.903 63.9823 199.209 63.6649 199.317 63.2211C199.43 62.768 199.301 62.3471 198.949 62.2344C198.66 62.1217 198.384 62.216 198.319 62.3241L197.303 61.7952C198.257 59.8242 199.11 58.4626 199.359 58.573C199.605 58.6834 199.172 60.2289 198.351 62.2597L197.335 61.7308C197.763 61.004 198.701 60.8384 199.377 61.1144C199.872 61.2777 200.309 61.7745 200.426 62.2413C200.568 62.722 200.506 63.1843 200.366 63.566C200.085 64.3457 199.425 64.8034 198.917 64.9713C197.855 65.307 197.234 65.0449 197.236 64.9092Z" fill="#050505"/>
<path d="M177.716 40.3642C177.587 40.0676 178.912 39.3707 180.582 39.8146C182.256 40.2492 183.066 41.505 182.808 41.7028C182.562 41.9373 181.591 41.3003 180.278 40.9737C178.974 40.6126 177.815 40.6908 177.716 40.3642Z" fill="#050505"/>
<path d="M155.798 36.8912C155.646 36.6083 156.962 35.7412 158.801 35.9091C160.641 36.0632 161.787 37.1441 161.591 37.3971C161.405 37.6846 160.207 37.2177 158.698 37.1028C157.189 36.9533 155.929 37.2062 155.798 36.8912Z" fill="#050505"/>
<path d="M196.438 52.6161C189.362 45.7165 187.285 34.2218 185.362 24.5301C178.81 29.3023 169.795 30.4753 162.239 27.5406C159.868 30.3281 157.081 32.7613 154.001 34.7369C153.125 35.2981 152.088 35.8455 151.09 35.5442C149.905 35.1854 149.374 33.8239 149.091 32.6164C148.19 28.7504 148.155 24.6106 149.505 20.8779C150.853 17.1429 153.679 13.8633 157.382 12.4305C161.34 10.8965 165.793 11.5635 169.903 12.6283C176.092 14.2336 182.057 16.6991 187.575 19.9304C192.989 23.1019 198.191 27.2992 200.489 33.1408C202.786 38.9802 202.775 50.3277 197.237 53.2807" fill="#050505"/>
<path d="M179.628 50.5047C179.296 50.4817 179.092 49.6054 179.168 48.5498C179.241 47.4942 179.572 46.6593 179.901 46.6823C180.23 46.7053 180.437 47.5816 180.361 48.6372C180.285 49.6905 179.959 50.5277 179.628 50.5047Z" fill="#050505"/>
<path d="M159.27 47.9064C158.939 47.8834 158.734 47.0071 158.81 45.9515C158.884 44.8959 159.215 44.061 159.544 44.084C159.873 44.107 160.08 44.9833 160.004 46.0389C159.928 47.0922 159.601 47.9294 159.27 47.9064Z" fill="#050505"/>
<path d="M58.9653 90.5467C58.9653 90.5467 62.0265 71.7453 65.6855 71.9477C69.3446 72.1501 76.6605 71.9477 76.6605 71.9477C76.6605 71.9477 77.27 54.0639 79.303 56.9089C81.3361 59.7538 81.9755 83.815 74.1353 95.358L58.9653 90.5467Z" fill="#FFC6C2"/>
<path d="M175.625 224.706L175.375 220.164L107.816 216.034L85.1577 155.428L11.0054 159.503L36.3039 225.042L175.625 224.706Z" fill="#0B1854"/>
<path d="M0 226.049L289.999 222.429L306.984 231.348C306.984 231.348 84.3591 292.451 0 226.049Z" fill="#C6E9F2"/>
</svg>
