<svg width="75" height="75" viewBox="0 0 75 75" fill="none" xmlns="http://www.w3.org/2000/svg">
<path d="M6.01333 60.0497H14.953V68.9758H6.01333V60.0497ZM68.9704 14.9246H60.0511V6.00525H68.9704V14.9246ZM14.9273 14.9286H6.00793V6.00117H14.9273V14.9286ZM56.9613 56.987H54.0593V54.0472H56.9613V56.987ZM32.943 50.9993H30.0019V48.0257H27.0324V45.0602H32.943V50.9993ZM30.0019 50.9993V51.0209L29.9816 50.9993H30.0019ZM27.0013 36.0044H26.9797V35.9841H27.0013V36.0044ZM69.0177 42.011V41.9894H69.0379L69.0177 42.011ZM66.0347 39.0064H69.0177V41.9894H66.0347V39.0064ZM66.0144 38.9875H66.036V39.0064H66.0144V38.9875ZM75 56.9613H72.0764V54.0512H75V56.9613ZM48.0378 18.0197H50.9763V20.9271H48.0378V18.0197ZM27.0013 20.992H26.9797V20.9717H27.0013V20.992ZM26.9797 20.9717H24.0385V17.9887H26.981L26.9797 20.9717ZM63.0706 66.0279H66.0171V68.9704H63.0706V66.0279ZM66.0171 66.0279V66.0077L66.036 66.0279H66.0171ZM48.0176 5.96064V5.98092L47.9973 5.96064H48.0176ZM50.9642 5.96064H48.0176V3.01817H50.9642V5.96064ZM44.9589 2.95735H42.0123V0.0148349H44.9589V2.95735ZM42.0123 2.95735V2.9776L41.9921 2.95735H42.0123ZM14.9719 26.9945V26.9743L14.9921 26.9945H14.9719ZM9.02202 26.9945H14.9719V29.9384H9.02202V26.9945ZM69.0379 42.011H74.9824V44.994H69.0379V42.011ZM69.0177 42.011L69.0379 41.9894V42.011H69.0177ZM27.0013 14.9854H26.9797V14.9651H27.0013V14.9854ZM27.0013 8.98016H26.981V8.95988L27.0013 8.98016ZM26.981 14.9665H24.0372V8.98016H26.981V14.9665ZM20.9771 38.9888H15.034V36.0423H20.9771V38.9888ZM20.9771 38.9888H20.9988L20.9771 39.0091V38.9888ZM66.0157 32.9808H66.036V33.0011H66.0157V32.9808ZM63.0327 33.0011H66.0157C66.0144 34.9966 66.0144 36.992 66.0144 38.9875H63.0327V33.0011ZM63.0125 32.9822H63.0327V33.0025H63.0125V32.9822ZM57.0248 72.0345H57.0045L57.0248 72.0142V72.0345ZM57.0248 72.0345H65.9712V74.9811H57.0248V72.0345ZM2.9614 39.005V38.9847L2.98168 39.005H2.9614ZM0.0148426 39.005H2.9614V50.952H0.0148426V39.005ZM66.0347 32.9808V29.9992H74.9783V32.9728H72.0358V35.9598H69.0569V32.9808H66.0347ZM66.0144 29.9789H66.036V29.9978H66.0144V29.9789ZM33.0065 29.9992H32.9862V29.9789H33.0065V29.9992ZM26.9999 26.9972H26.9797V26.9756H26.9999V26.9972ZM2.9614 38.9847H2.98168V39.005L2.9614 38.9847ZM5.9404 29.9762C5.9404 33.0403 5.9404 36.026 5.9404 39.0131C4.95281 39.005 3.96792 38.9942 2.98168 38.9847V33.0065H0.0040405V24.0385H5.92551V26.9635H3.02353V29.9762H5.9404ZM5.95928 39.0131V39.0361H5.93904C5.93904 39.0361 5.94716 39.0266 5.95256 39.0199C5.94716 39.0266 5.93905 39.0361 5.9404 39.0347V39.0131H5.95928ZM14.9719 26.9743H14.9921V26.9945L14.9719 26.9743ZM23.998 33.0011H23.9777V32.9808H23.998V33.0011ZM23.9993 51.0182H23.9777V50.9979H23.9993V51.0182ZM11.9659 44.9927H11.9875V45.0129H11.9659V44.9927ZM23.9777 48.0298V50.9979H8.98421V48.0149H11.9875V45.0116H17.9725V48.0298H23.9777ZM8.98421 48.0149H8.96529V47.9933H8.98421V48.0149ZM8.96529 44.9927V47.9933H5.95796C5.95796 44.9886 5.95793 42.0137 5.95928 39.0361H8.93556V33.043H11.9659V44.9927H8.96529ZM35.9882 11.9632H36.0085V11.9834H35.9882V11.9632ZM42.0137 8.94095V5.97684C44.0078 5.97819 46.0032 5.97957 47.9973 5.98092V8.95448H50.9736V14.9178H48.0311V12.0145H42.0394V14.9489H44.963V20.9433H42.0353V17.9684H39.0117V14.9503H36.0085V11.9834H39.0226V8.94095H42.0137ZM41.9934 5.95795H42.0151V5.97684H41.9934V5.95795ZM48.0176 5.98092H47.9973V5.96064L48.0176 5.98092ZM35.9882 57.0032H36.0085V57.0234H35.9882V57.0032ZM36.0085 63.0084V63.0287H35.9882V63.0084C35.995 63.0084 36.0017 63.0084 36.0085 63.0084ZM30.0032 69.0353H29.9843V69.0136H30.0032V69.0353ZM30.0019 51.0209C29.9951 51.0209 29.9884 51.0196 29.9816 51.0196V50.9993L30.0019 51.0209ZM30.0451 60.0632H32.9876V63.0098H30.0451V60.0632ZM33.0092 63.03C34.0022 63.0219 34.9952 63.0152 35.9882 63.0084V57.0221H29.9816V51.0196L23.9993 51.0182V60.0483H27.0161V66.0374H30.0032V69.0136H33.0092V63.03ZM20.9988 38.9888V39.0091H20.9771L20.9988 38.9888ZM47.9595 35.9841H45.017V33.0011H47.9595V35.9841ZM48.0568 26.9945H51.0033V29.937H48.0568V26.9945ZM54.0674 33.0389H57.0099V35.9855H54.0674V33.0389ZM23.9642 42.0123H32.9916V36.0112H35.972V33.0025H41.9948V36.0044H44.9954V41.9475H42.0177V39.0347H36.0328V41.9705H39.0117V44.9927H53.9661V42.0259H51.0682V38.9875H57.0072C57.0153 37.9931 57.0221 37.0001 57.0289 36.0058H59.9956V32.9822H63.0125V29.9789H66.0144V24.0385H59.997V27.0013H56.9856V29.9505H53.9999V26.9743H51.0236V23.9561H38.9901V17.9887H36.0476V26.9607H42.0137V29.9789H44.9954V32.9822H42.0137C42.0069 31.9879 42.0002 30.9935 41.9948 29.9992H33.0065V32.9808H30.0032V29.9992C30.9975 29.9938 31.9919 29.9857 32.9862 29.9789V24.0115H29.983V20.992H27.0013C27.0013 22.9861 27.0013 24.9815 26.9999 26.9769H29.983V29.9789H27.0013C26.9945 28.9859 26.9864 27.9916 26.9797 26.9972H23.9615V24.0331H14.9921V26.9743H20.9299V30.014H18.0306V32.9808H23.9777V29.9992H26.981V32.9822C25.9867 32.989 24.9923 32.9944 23.998 33.0011V35.9841H26.9797C26.9864 34.9898 26.9945 33.9955 27.0013 33.0011H29.983V36.0044H27.0013V39.0091H20.9988V42.0245H17.9941V44.9927H23.9642V42.0123ZM17.9941 45.0116H17.9725V44.9913H17.9941V45.0116ZM41.9948 29.9789H42.0151V29.9992H41.9948V29.9789ZM27.0013 8.98016L26.981 8.95988H27.0013V8.98016ZM27.0013 17.9873H26.9797V17.9684H27.0013V17.9873ZM30.0032 17.9684H27.0013V14.9854H29.9438V8.95988H27.0013V5.9836H32.9579V2.99788H27.0378V0.00135285H35.9639V2.9776H41.9921C41.9921 3.97059 41.9934 4.96496 41.9934 5.95795H35.9882V11.9632H32.97V20.9704H30.0032V17.9684ZM30.0032 20.992H29.983V20.9717L30.0032 20.9704V20.992ZM42.0123 2.9776H41.9921V2.95735L42.0123 2.9776ZM48.0473 69.0339H57.0072C57.0059 70.0269 57.0059 71.0199 57.0045 72.0142H54.0282V74.9919H48.0406V72.0386H45.0278V69.0771H42.0164V74.9919H24.0439V69.0353H29.983V71.9764H36.0328V69.0015H38.9577V65.9982H36.0085V63.0287H44.9967V66.0468H48.0473V69.0339ZM57.0045 72.0345V72.0142H57.0248L57.0045 72.0345ZM57.0072 69.0123H57.0275V69.0339H57.0072V69.0123ZM44.9967 63.0084H45.017V63.0287H44.9967V63.0084ZM3.02761 57.064H17.9522V71.9872H3.02761V57.064ZM0.0175638 74.9716H20.9474V54.0418H0.0175638V74.9716ZM71.9953 17.9238H57.0464V3.00732H71.9953V17.9238ZM74.9824 0.0202386H54.0539V20.9501H74.9824V0.0202386ZM17.9319 17.9468H3.00869V3.0222H17.9319V17.9468ZM20.9299 -7.73054e-06H0V20.9312H20.9299V-7.73054e-06ZM39.0117 45.0116H38.9915V44.9913H39.0117V45.0116ZM57.0275 39.0064H57.0072V38.9861H57.0275V39.0064ZM38.9901 17.9684H39.0117V17.9887H38.9901V17.9684ZM69.0177 44.9927L69.0379 44.994V45.0116H69.0177V44.9927ZM66.0171 66.0077H66.036V66.0279L66.0171 66.0077ZM59.97 59.9727H51.025V51.0641H59.97V59.9727ZM47.9622 57.0045H42.0137V51.0601H47.9622V57.0045ZM63.0665 56.9856H66.0455V53.9958H69.0177V45.0116H63.0408V42.0259H60.0537V39.0064H57.0275V47.9555H38.9915V45.0116H36.0476V50.9979H38.9658V53.9796H36.0085V57.0032C38.0025 57.0099 39.998 57.018 41.9921 57.0248V59.9916H45.017V63.0084H50.9804V65.9982H57.0275V69.0123H60.0416V63.0678H66.036V66.0077H72.0683V74.9865H74.9824V59.9997H63.0665V56.9856Z" fill="#634B5B"/>
</svg>
