<svg width="281" height="180" viewBox="0 0 281 180" fill="none" xmlns="http://www.w3.org/2000/svg">
<path d="M25.5352 156.035C25.5352 168.847 35.9183 179.235 48.7263 179.235C61.5343 179.235 71.9172 168.847 71.9172 156.035C71.9172 143.222 61.5343 132.835 48.7263 132.835C35.9183 132.835 25.5352 143.222 25.5352 156.035Z" fill="#2C2F31"/>
<path d="M32.5907 156.035C32.5907 164.95 39.8149 172.175 48.7263 172.175C57.6377 172.175 64.8619 164.95 64.8619 156.035C64.8619 147.119 57.6377 139.895 48.7263 139.895C39.8149 139.895 32.5907 147.119 32.5907 156.035Z" fill="#2C2F31"/>
<path d="M37.9353 156.035C37.9353 161.997 42.7666 166.829 48.7263 166.829C54.6861 166.829 59.5175 161.997 59.5175 156.035C59.5175 150.073 54.6861 145.24 48.7263 145.24C42.7666 145.24 37.9353 150.073 37.9353 156.035Z" fill="#4A4F52"/>
<path d="M216.49 156.035C216.49 161.997 221.32 166.829 227.28 166.829C233.24 166.829 238.072 161.997 238.072 156.035C238.072 150.073 233.24 145.24 227.28 145.24C221.32 145.24 216.49 150.073 216.49 156.035Z" fill="#4A4F52"/>
<path d="M280.523 133.956C278.563 121.027 272.224 118.313 253.475 114.562C232.789 110.426 206.522 96.9316 206.522 96.9316C206.522 96.9316 161.728 74.9849 150.755 72.4666C139.779 69.9482 112.796 70.6668 90.1287 70.8482C67.4617 71.0272 54.1493 77.3242 42.6356 86.3187C31.1221 95.3131 11.1534 102.15 11.1534 102.15L7.52614 102.796C3.79583 103.463 1.07935 106.707 1.07935 110.498V142.58C1.07935 146.213 3.52632 149.389 7.03829 150.317L20.1486 153.779C21.2164 153.965 22.2091 153.205 22.327 152.128C23.7626 139.002 35.1087 129.028 48.6387 129.045C63.0256 129.061 74.824 140.883 74.8149 155.27C74.8137 156.905 74.6626 158.504 74.3745 160.055C74.0773 161.658 75.3079 163.134 76.9372 163.134H197.592C199.936 163.134 201.759 161.074 201.448 158.751C201.299 157.632 201.22 156.493 201.215 155.333C201.173 141.122 212.665 129.342 226.871 129.049C241.599 128.747 253.633 140.595 253.633 155.254C253.633 156.223 253.58 157.181 253.477 158.125C253.184 160.795 255.251 163.134 257.937 163.134H275.289C278.442 163.134 281 160.579 281 157.423V140.618C281 138.388 280.858 136.16 280.523 133.956Z" fill="#FF9AC5"/>
<path d="M1.84401 114.292H16.1337C17.3578 114.292 18.187 115.539 17.7138 116.669L16.1086 120.499C14.5781 124.15 11.0059 126.526 7.04697 126.526H1.84401C0.825737 126.526 0 125.701 0 124.682V116.136C0 115.118 0.825737 114.292 1.84401 114.292Z" fill="#FFC359"/>
<path d="M257.793 120.229C265.662 121.433 274.726 128.886 274.726 128.886C276.891 131.214 275.103 134.995 271.929 134.793L256.586 133.823C253.398 133.623 250.68 131.442 249.792 128.375C248.299 123.222 249.568 118.969 257.793 120.229Z" fill="#FFC359"/>
<path d="M199.19 150.168L197.976 150.138C198.678 129.435 204.552 108.574 205.54 105.189C202.115 103.317 179.041 90.7529 163.373 83.4955C150.02 77.3124 135.392 76.6729 129.913 76.6729C129.197 76.6729 128.634 76.6822 128.255 76.6938V148.438L127.041 148.407V76.7031C125.5 76.6752 121.093 76.6008 115.275 76.6008C100.474 76.6008 76.5397 77.0729 67.3827 79.9261C54.6317 83.9024 37.5678 101.931 35.4799 104.175L39.9836 125.307C41.09 125.254 42.163 125.226 43.2038 125.226C59.1301 125.226 67.4864 131.344 71.7474 136.697C74.9059 140.664 76.299 144.694 76.9013 147.184L75.6296 147.152C75.0068 144.752 73.6493 141.015 70.7587 137.404C64.9932 130.2 55.503 126.442 43.1735 126.442C41.9865 126.442 40.771 126.477 39.5321 126.547L39.0126 126.577L34.1617 103.814L34.3719 103.584C35.133 102.749 53.1714 83.0839 67.0216 78.768C76.3311 75.866 99.8406 75.373 114.719 75.373C121.814 75.373 126.946 75.4846 127.639 75.5009C127.792 75.4939 128.59 75.4591 129.897 75.4591C135.475 75.4591 150.318 76.1125 163.882 82.3956C180.796 90.2273 206.301 104.221 206.554 104.361L206.989 104.598L206.843 105.07C206.773 105.303 199.95 127.84 199.19 150.168Z" fill="#FF6AA2"/>
<path d="M202.352 157C202.35 155.686 202.443 154.393 202.627 153.128C202.848 151.607 201.715 150.231 200.178 150.191L74.6852 147.129C73.3163 147.096 72.3294 148.403 72.7026 149.719C73.3537 152.019 73.7023 154.44 73.7006 156.935C73.6997 158.59 73.5472 160.209 73.2572 161.781C72.9542 163.422 74.192 164.941 75.8609 164.941H198.667C201.076 164.941 202.896 162.811 202.582 160.42C202.434 159.302 202.357 158.16 202.352 157Z" fill="#FF61A4"/>
<path d="M198.667 164.941H75.861C74.3617 164.941 73.2104 163.715 73.2116 162.276C73.2118 162.113 73.2267 161.948 73.2574 161.781C73.5473 160.209 73.6999 158.59 73.7008 156.935H202.355C202.352 156.958 202.352 156.979 202.352 157C202.357 158.16 202.434 159.302 202.583 160.42C202.606 160.604 202.617 160.783 202.617 160.962C202.615 163.122 200.892 164.941 198.667 164.941Z" fill="#FF4386"/>
<path d="M148.869 114.862H133.21C132.841 114.862 132.541 114.56 132.541 114.19V112.79C132.541 112.418 132.841 112.118 133.21 112.118H148.869C149.239 112.118 149.539 112.418 149.539 112.79V114.19C149.539 114.56 149.239 114.862 148.869 114.862Z" fill="#FF61A4"/>
<path d="M49.2156 106.512L118.57 107.168C118.57 107.168 122.814 107.054 123.393 103.059C123.97 99.0639 123.921 81.9563 123.921 81.9563C123.921 81.9563 123.419 78.5217 120.128 78.4776C118.128 78.452 101.372 77.2544 85.0752 79.238C71.7808 80.8587 59.4823 86.9302 50.1585 96.2572L45.2356 101.182C45.2356 101.182 41.9152 106.445 49.2156 106.512Z" fill="black" fill-opacity="0.34"/>
<path d="M131.641 84.1281V102.063C131.641 104.396 133.429 106.31 135.689 106.4L190.186 108.591C191.437 108.642 192.663 108.077 193.379 107.019C194.358 105.577 194.472 103.205 189.588 100.026C181.096 94.4968 159.489 82.5352 151.497 81.3795C146.409 80.6424 139.754 80.3215 135.587 80.1866C133.427 80.1169 131.641 81.9004 131.641 84.1281Z" fill="black" fill-opacity="0.34"/>
<path d="M119.551 18.8208C119.612 14.0678 123.512 10.2658 128.265 10.3263C133.015 10.3844 136.819 14.2864 136.759 19.037C136.699 23.7877 132.799 27.592 128.046 27.5315C123.295 27.4711 119.493 23.5714 119.551 18.8208ZM111.064 25.655L127.655 58.5888L145.072 26.0828C150.23 14.1608 141.952 0.557509 128.971 0.0180322C128.781 0.00872807 128.588 0.00407412 128.395 0.00174714C128.199 -0.000576022 128.006 -0.000576022 127.816 0.00174714C114.826 0.21568 106.209 13.605 111.064 25.655Z" fill="#FE544E"/>
</svg>
