<svg width="14" height="12" viewBox="0 0 14 12" fill="none" xmlns="http://www.w3.org/2000/svg">
<path d="M13.7143 3V10.7143C13.7143 11.4241 13.1384 12 12.4286 12H1.28571C0.575893 12 0 11.4241 0 10.7143V3C0 2.29018 0.575893 1.71429 1.28571 1.71429H3.64286L3.97232 0.833036C4.15982 0.332143 4.63929 0 5.175 0H8.53661C9.07232 0 9.55179 0.332143 9.73929 0.833036L10.0714 1.71429H12.4286C13.1384 1.71429 13.7143 2.29018 13.7143 3ZM10.0714 6.85714C10.0714 5.08393 8.63036 3.64286 6.85714 3.64286C5.08393 3.64286 3.64286 5.08393 3.64286 6.85714C3.64286 8.63036 5.08393 10.0714 6.85714 10.0714C8.63036 10.0714 10.0714 8.63036 10.0714 6.85714ZM9.21429 6.85714C9.21429 8.15625 8.15625 9.21429 6.85714 9.21429C5.55804 9.21429 4.5 8.15625 4.5 6.85714C4.5 5.55804 5.55804 4.5 6.85714 4.5C8.15625 4.5 9.21429 5.55804 9.21429 6.85714Z" fill="#0B1854"/>
</svg>
