<svg width="160" height="291" viewBox="0 0 160 291" fill="none" xmlns="http://www.w3.org/2000/svg">
<path d="M15.0635 290.934C6.7568 290.934 0 284.174 0 275.87V15.0635C0 6.75813 6.7568 0 15.0635 0H144.937C153.242 0 160 6.75813 160 15.0635V275.87C160 284.174 153.242 290.934 144.937 290.934H15.0635Z" fill="#596375"/>
<path d="M19.1665 285.062C11.6107 285.062 5.46321 278.915 5.46321 271.359V19.5749C5.46321 12.0191 11.6107 5.87157 19.1665 5.87157H34.7378C38.8985 5.87157 42.5595 8.52913 43.8488 12.4841L45.6032 17.8607C46.0668 19.281 47.3802 20.2336 48.874 20.2336H111.126C112.619 20.2336 113.933 19.281 114.396 17.8607L116.151 12.4841C117.441 8.52913 121.102 5.87157 125.262 5.87157H140.834C148.39 5.87157 154.536 12.0191 154.536 19.5749V271.359C154.536 278.915 148.39 285.062 140.834 285.062H19.1665Z" fill="#3C465E"/>
<path d="M19.3805 276.703C16.1885 276.703 13.5924 274.108 13.5924 270.916V20.0189C13.5924 16.8269 16.1885 14.2321 19.3805 14.2321H34.897C35.6278 14.2321 36.2705 14.6984 36.4963 15.3905L38.2453 20.7511C39.7645 25.4115 44.0802 28.5434 48.9824 28.5434H111.016C115.918 28.5434 120.234 25.4115 121.755 20.7511L123.502 15.3918C123.729 14.6984 124.372 14.2321 125.102 14.2321H140.619C143.81 14.2321 146.406 16.8269 146.406 20.0189V270.916C146.406 274.108 143.81 276.703 140.619 276.703H19.3805Z" fill="white"/>
<path d="M87.4351 11.7107H49.5251C48.5016 11.7107 47.6719 10.8809 47.6719 9.85745C47.6719 8.83397 48.5016 8.00424 49.5251 8.00424H87.4351C88.4585 8.00424 89.2883 8.83397 89.2883 9.85745C89.2883 10.8809 88.4585 11.7107 87.4351 11.7107Z" fill="#35405E"/>
<path d="M100.342 9.85723C100.342 11.9042 98.6826 13.5637 96.6357 13.5637C94.5874 13.5637 92.9279 11.9042 92.9279 9.85723C92.9279 7.81028 94.5874 6.15081 96.6357 6.15081C98.6826 6.15081 100.342 7.81028 100.342 9.85723Z" fill="#35405E"/>
<path d="M110.583 9.85721C110.583 11.5006 109.25 12.8341 107.605 12.8341C105.961 12.8341 104.628 11.5006 104.628 9.85721C104.628 8.21243 105.961 6.87898 107.605 6.87898C109.25 6.87898 110.583 8.21243 110.583 9.85721Z" fill="#35405E"/>
</svg>
