<svg width="180" height="180" viewBox="0 0 180 180" fill="none" xmlns="http://www.w3.org/2000/svg">
<g clip-path="url(#clip0_77_6172)">
<circle cx="52" cy="52.5" r="52.5" fill="#C9DFF5" fill-opacity="0.37"/>
<path fill-rule="evenodd" clip-rule="evenodd" d="M15.0001 111.023V159.375C15.0001 162.48 17.5201 165 20.6251 165H32.7301C34.0622 165.001 35.3512 164.528 36.3676 163.667C37.3839 162.806 38.0616 161.612 38.2801 160.298L41.2501 142.5H138.75L141.713 160.298C141.931 161.612 142.609 162.806 143.625 163.667C144.642 164.528 145.93 165.001 147.263 165H159.375C160.867 165 162.298 164.408 163.353 163.353C164.407 162.298 165 160.867 165 159.375V111.023C165.001 102.206 162.391 93.5863 157.5 86.2502L151.65 77.4752C151.128 76.694 150.681 75.8653 150.315 75.0002H157.77C158.815 75.0002 159.84 74.709 160.729 74.1592C161.618 73.6094 162.336 72.8229 162.803 71.8877L164.678 68.1377C165.105 67.2807 165.307 66.3287 165.264 65.3717C165.221 64.4148 164.934 63.4848 164.431 62.6698C163.928 61.8548 163.225 61.1818 162.388 60.7146C161.552 60.2475 160.61 60.0016 159.653 60.0002H147L144.675 48.4052C143.968 44.8739 142.258 41.621 139.751 39.0354C137.244 36.4499 134.045 34.6411 130.538 33.8252C119.573 31.2752 106.058 30.0002 90.0001 30.0002C73.9351 30.0002 60.4276 31.2752 49.4626 33.8252C45.9534 34.6398 42.7531 36.448 40.2446 39.0337C37.736 41.6194 36.0255 44.8729 35.3176 48.4052L32.9926 60.0002H20.3551C19.3972 60.0016 18.4556 60.2475 17.6193 60.7146C16.7831 61.1818 16.08 61.8548 15.5768 62.6698C15.0735 63.4848 14.7867 64.4148 14.7435 65.3717C14.7003 66.3287 14.9023 67.2807 15.3301 68.1377L17.2051 71.8877C17.6714 72.8217 18.3884 73.6075 19.2758 74.1572C20.1633 74.7069 21.1862 74.9988 22.2301 75.0002H29.6926C29.3261 75.8652 28.8792 76.6939 28.3576 77.4752L22.5001 86.2502C17.6101 93.5852 15.0001 102.203 15.0001 111.023ZM134.708 75.0302C135.224 77.6243 136.082 80.1386 137.258 82.5077H42.7426C43.9201 80.1452 44.7751 77.6327 45.2926 75.0302L50.0326 51.3527C50.1725 50.6448 50.5137 49.9923 51.0152 49.4735C51.5168 48.9547 52.1573 48.5916 52.8601 48.4277C62.5951 46.1777 75.0001 45.0002 90.0001 45.0002C105 45.0002 117.405 46.1702 127.14 48.4352C127.843 48.5972 128.485 48.9587 128.988 49.4762C129.49 49.9937 129.833 50.6452 129.975 51.3527L134.708 75.0302ZM41.2501 120C44.2338 120 47.0953 118.815 49.2051 116.705C51.3148 114.595 52.5001 111.734 52.5001 108.75C52.5001 105.767 51.3148 102.905 49.2051 100.795C47.0953 98.6855 44.2338 97.5002 41.2501 97.5002C38.2664 97.5002 35.4049 98.6855 33.2952 100.795C31.1854 102.905 30.0001 105.767 30.0001 108.75C30.0001 111.734 31.1854 114.595 33.2952 116.705C35.4049 118.815 38.2664 120 41.2501 120ZM150 108.75C150 111.734 148.815 114.595 146.705 116.705C144.595 118.815 141.734 120 138.75 120C135.766 120 132.905 118.815 130.795 116.705C128.685 114.595 127.5 111.734 127.5 108.75C127.5 105.767 128.685 102.905 130.795 100.795C132.905 98.6855 135.766 97.5002 138.75 97.5002C141.734 97.5002 144.595 98.6855 146.705 100.795C148.815 102.905 150 105.767 150 108.75Z" fill="#198754"/>
</g>
<defs>
<clipPath id="clip0_77_6172">
<rect width="180" height="180" fill="white"/>
</clipPath>
</defs>
</svg>
