<svg width="24" height="24" viewBox="0 0 24 24" fill="none" xmlns="http://www.w3.org/2000/svg">
<path d="M2 5.73722C2 3.67321 3.67321 2 5.73722 2H7.72718C8.31689 2 8.79495 2.47807 8.79495 3.06778C8.79495 3.65749 8.31689 4.13556 7.72718 4.13556H5.73722C4.85264 4.13556 4.13556 4.85264 4.13556 5.73722V7.72718C4.13556 8.31689 3.65749 8.79495 3.06778 8.79495C2.47807 8.79495 2 8.31689 2 7.72718V5.73722ZM14.4251 3.06778C14.4251 2.47807 14.9031 2 15.4929 2H17.4828C19.5468 2 21.22 3.67321 21.22 5.73722V7.72718C21.22 8.31689 20.742 8.79495 20.1522 8.79495C19.5625 8.79495 19.0844 8.31689 19.0844 7.72718V5.73722C19.0844 4.85264 18.3673 4.13556 17.4828 4.13556H15.4929C14.9031 4.13556 14.4251 3.65749 14.4251 3.06778ZM3.06778 14.4251C3.65749 14.4251 4.13556 14.9031 4.13556 15.4929V17.4828C4.13556 18.3673 4.85264 19.0844 5.73722 19.0844H7.72718C8.31689 19.0844 8.79495 19.5625 8.79495 20.1522C8.79495 20.742 8.31689 21.22 7.72718 21.22H5.73722C3.67321 21.22 2 19.5468 2 17.4828V15.4929C2 14.9031 2.47807 14.4251 3.06778 14.4251ZM20.1522 14.4251C20.742 14.4251 21.22 14.9031 21.22 15.4929V17.4828C21.22 19.5468 19.5468 21.22 17.4828 21.22H15.4929C14.9031 21.22 14.4251 20.742 14.4251 20.1522C14.4251 19.5625 14.9031 19.0844 15.4929 19.0844H17.4828C18.3673 19.0844 19.0844 18.3673 19.0844 17.4828V15.4929C19.0844 14.9031 19.5625 14.4251 20.1522 14.4251ZM9.47444 6.27111H6.27111V9.47444H9.47444V13.7456H6.27111V16.9489H9.47444V13.7456H13.7456V16.9489H16.9489V13.7456H13.7456V9.47444H16.9489V6.27111H13.7456V9.47444H9.47444V6.27111Z" fill="#B9BCBE"/>
</svg>
