<svg width="24" height="24" viewBox="0 0 24 24" fill="none" xmlns="http://www.w3.org/2000/svg">
<path d="M11.61 21.22C6.30254 21.22 2 16.9174 2 11.61C2 6.30254 6.30254 2 11.61 2C16.9174 2 21.22 6.30254 21.22 11.61C21.22 16.9174 16.9174 21.22 11.61 21.22ZM16.415 13.0515C16.415 12.2554 15.7696 11.61 14.9735 11.61H8.2465C7.45038 11.61 6.805 12.2554 6.805 13.0515V13.532C6.805 15.4265 8.59199 17.376 11.61 17.376C14.628 17.376 16.415 15.4265 16.415 13.532V13.0515ZM14.2527 8.00625C14.2527 6.5467 13.0696 5.3635 11.61 5.3635C10.1504 5.3635 8.96725 6.5467 8.96725 8.00625C8.96725 9.4658 10.1504 10.649 11.61 10.649C13.0696 10.649 14.2527 9.4658 14.2527 8.00625Z" fill="#B9BCBE"/>
</svg>
